<?xml version="1.0" standalone="no"?>
<!DOCTYPE svg PUBLIC "-//W3C//DTD SVG 20010904//EN"
 "http://www.w3.org/TR/2001/REC-SVG-20010904/DTD/svg10.dtd">
<svg version="1.0" xmlns="http://www.w3.org/2000/svg"
 width="536.000000pt" height="536.000000pt" viewBox="0 0 536.000000 536.000000"
 preserveAspectRatio="xMidYMid meet">
<metadata>
Created by potrace 1.14, written by Peter Selinger 2001-2017
</metadata>
<g transform="translate(0.000000,536.000000) scale(0.100000,-0.100000)"
fill="#000000" stroke="none">
<path d="M1990 4130 c-130 -12 -344 -62 -435 -100 -332 -140 -517 -261 -721
-473 -307 -318 -478 -699 -515 -1148 -35 -408 93 -862 339 -1208 210 -296 538
-545 880 -671 187 -68 472 -120 659 -120 211 0 501 59 715 145 342 137 658
396 860 704 26 41 46 76 44 78 -2 3 -48 -9 -103 -26 -99 -31 -292 -71 -340
-71 -18 0 -47 -20 -95 -66 -251 -237 -570 -386 -908 -425 -114 -13 -335 -7
-435 11 -597 108 -1072 532 -1234 1102 -43 149 -55 243 -55 418 0 158 11 247
46 380 131 498 514 906 1003 1069 194 64 271 76 500 76 230 0 306 -12 500 -77
437 -146 794 -487 956 -915 13 -35 27 -63 30 -63 12 0 69 127 85 190 23 89 14
262 -16 339 -51 130 -106 207 -242 336 -131 126 -292 242 -443 318 -75 38
-245 102 -360 136 -187 55 -499 81 -715 61z"/>
<path d="M2044 3196 c-221 -42 -390 -131 -535 -282 -350 -365 -340 -941 24
-1296 169 -165 375 -259 603 -275 81 -5 228 8 271 24 9 4 -31 29 -104 67 -210
109 -408 262 -549 425 -121 140 -164 251 -164 422 0 192 87 369 234 478 120
89 242 126 386 118 183 -10 313 -72 461 -223 46 -46 102 -95 124 -108 55 -33
173 -66 255 -73 l68 -6 -9 44 c-13 57 -68 185 -111 256 -78 131 -263 292 -414
359 -159 71 -382 100 -540 70z"/>
</g>
</svg>
