<svg width="18" height="18" viewBox="0 0 18 18" fill="none" xmlns="http://www.w3.org/2000/svg">
<g clip-path="url(#clip0_123_4931)">
<path d="M14.2502 0H3.8064C2.95583 0 2.20898 0.699729 2.20898 1.52798V16.9775C2.20898 17.2548 2.28615 17.4858 2.41051 17.6644C2.55923 17.8778 2.7987 18.0001 3.05548 18C3.29826 18 3.55674 17.8919 3.79545 17.688L8.468 13.7208C8.61231 13.5976 8.81961 13.5269 9.03514 13.5269C9.25058 13.5269 9.45745 13.5976 9.60219 13.7212L14.2591 17.6874C14.4987 17.8919 14.7393 18.0001 14.9817 18.0001C15.3915 18.0001 15.791 17.684 15.791 16.9776V1.52798C15.791 0.699729 15.1008 0 14.2502 0Z" fill="white"/>
</g>
<defs>
<clipPath id="clip0_123_4931">
<rect width="18" height="18" fill="white"/>
</clipPath>
</defs>
</svg>
