<?xml version="1.0" encoding="UTF-8"?>
<svg width="366px" height="396px" viewBox="0 0 366 396" version="1.1" xmlns="http://www.w3.org/2000/svg" xmlns:xlink="http://www.w3.org/1999/xlink">
    <title>international-business</title>
    <g id="Page-1" stroke="none" stroke-width="1" fill="none" fill-rule="evenodd">
        <g id="international-business" transform="translate(0.816000, 0.261950)" fill-rule="nonzero">
            <path d="M182.196,62.0700502 C182.192,62.0700502 182.192,62.0700502 182.196,62.0700502 L182.184,62.0700502 C107.376,62.0700502 46.512,122.93005 46.512,197.74205 C46.512,272.54605 107.376,333.40605 182.184,333.40605 L182.188,333.40605 L182.196,333.40605 L182.208,333.40605 C257.008,333.39405 317.86,272.53805 317.86,197.74205 C317.86,122.94205 257.012,62.0860502 182.212,62.0700502 C182.208,62.0700502 182.2,62.0700502 182.196,62.0700502 Z M221.488,240.68205 C222.88,238.76205 225.128,237.49405 227.676,237.49405 C231.9,237.49405 235.332,240.92605 235.332,245.14605 C235.332,249.37405 231.9,252.81005 227.676,252.81005 C223.456,252.81005 220.024,249.37405 220.024,245.14605 C220.024,243.49405 220.564,241.97005 221.46,240.71805 C221.472,240.70605 221.476,240.69405 221.488,240.68205 Z M227.676,260.81405 C236.308,260.81405 243.332,253.78605 243.332,245.15005 C243.332,243.49405 243.004,241.93005 242.528,240.43005 C247.772,236.43005 252.184,232.11405 255.972,227.61805 C254.612,237.06605 252.608,246.24205 249.948,255.07805 C237.684,295.78605 212.956,322.70605 186.184,325.16205 L186.184,200.08205 C197.632,212.42605 208.956,226.29805 214.1,237.49805 C212.816,239.77005 212.02,242.35405 212.02,245.14205 C212.024,253.78605 219.048,260.81405 227.676,260.81405 L227.676,260.81405 Z M178.184,325.21405 C156.208,323.28205 136,305.53405 122.256,275.82205 C114.796,259.69405 109.896,241.27005 107.684,221.67005 C113.276,205.28205 123.1,184.83005 139.112,174.75805 C141.42,177.08605 144.616,178.53405 148.144,178.53405 C152.56,178.53405 156.448,176.28205 158.736,172.86605 C163.144,176.91805 170.32,183.67005 178.18,191.69405 L178.18,325.21405 L178.184,325.21405 Z M97.396,249.15005 C101.62,249.15005 105.052,252.58605 105.052,256.81405 C105.052,261.04605 101.62,264.48605 97.396,264.48605 C93.168,264.48605 89.728,261.04605 89.728,256.81405 C89.728,252.58605 93.168,249.15005 97.396,249.15005 Z M102.088,241.94605 C102.2,241.41405 102.324,240.84605 102.464,240.21805 C102.596,240.88205 102.756,241.53405 102.896,242.19805 C102.628,242.09805 102.356,242.03005 102.088,241.94605 Z M143.42,165.80605 C143.42,163.19405 145.54,161.06605 148.148,161.06605 C150.764,161.06605 152.896,163.19005 152.896,165.80605 C152.896,168.41805 150.768,170.54205 148.148,170.54205 C146.22,170.54205 144.564,169.37005 143.828,167.70205 C143.82,167.68205 143.824,167.66205 143.812,167.64205 C143.804,167.63005 143.792,167.62205 143.784,167.61005 C143.552,167.05005 143.42,166.44205 143.42,165.80605 L143.42,165.80605 Z M178.184,180.32205 C170.04,172.27805 163.332,166.19405 160.692,163.83005 C159.736,157.74605 154.496,153.06605 148.144,153.06605 C141.128,153.06605 135.416,158.78205 135.416,165.80605 C135.416,166.40205 135.512,166.97405 135.592,167.54605 C122.304,175.59405 112.92,189.43805 106.432,203.19805 C106.384,201.37805 106.3,199.57405 106.3,197.74605 C106.3,188.97805 106.836,180.21805 107.888,171.70205 C114.928,115.02605 144.136,73.3260502 178.184,70.2700502 L178.184,180.32205 Z M54.512,197.74205 C54.512,139.85005 93.26,90.8620502 146.172,75.2740502 C122.916,93.2020502 105.256,127.97005 99.952,170.71405 C98.856,179.55405 98.3,188.64605 98.3,197.74205 C98.3,205.51005 98.716,213.16605 99.5,220.67405 C96.484,229.80605 94.776,237.50605 93.984,241.54605 C86.984,243.11005 81.728,249.34605 81.728,256.81005 C81.728,265.45005 88.756,272.48205 97.396,272.48205 C102.456,272.48205 106.916,270.02605 109.78,266.28605 C111.376,270.70205 113.08,275.03405 115,279.18205 C123.228,296.96205 133.74,310.79005 145.656,320.05405 C93.004,304.30205 54.512,255.44605 54.512,197.74205 L54.512,197.74205 Z M309.86,197.74205 C309.86,255.46605 271.336,304.33805 218.656,320.07005 C235.324,307.17805 249.132,285.51005 257.604,257.38205 C261.78,243.52605 264.416,228.88205 265.504,213.68205 C277.848,190.83405 277.512,166.42205 277.316,153.83405 C277.28,151.46205 277.236,148.83005 277.344,147.49805 C277.76,146.99805 278.004,146.37405 278.136,145.71005 C280.872,143.33405 282.64,139.87005 282.64,135.97005 C282.64,128.82605 276.828,123.01405 269.68,123.01405 C262.528,123.01405 256.712,128.82605 256.712,135.97005 C256.712,142.98205 262.324,148.68205 269.296,148.89005 C269.268,150.29805 269.288,151.93805 269.32,153.95805 C269.46,162.85005 269.648,176.45805 265.924,190.93005 C265.796,186.75405 265.596,182.58605 265.236,178.47005 C264.7,172.29405 263.888,166.11005 262.82,160.09405 C262.432,157.92205 260.36,156.46205 258.188,156.85005 C256.012,157.23405 254.56,159.31005 254.944,161.48605 C255.968,167.27005 256.748,173.21405 257.264,179.15805 C257.8,185.28205 258.068,191.53405 258.068,197.73805 C258.068,202.36205 257.908,206.93805 257.62,211.47005 C253.092,219.35005 246.844,226.93805 238.204,233.64205 C235.416,231.09005 231.74,229.49405 227.672,229.49405 C224.908,229.49405 222.344,230.27405 220.088,231.54205 C213.012,217.88205 198.98,201.67405 186.18,188.41005 L186.18,70.2620502 C208.024,72.1780502 228.16,89.7580502 241.908,119.19405 C242.84,121.19005 245.22,122.06205 247.224,121.12605 C249.228,120.19005 250.092,117.81005 249.156,115.80605 C240.964,98.2660502 230.532,84.6020502 218.728,75.4260502 C271.372,91.1820502 309.86,140.04205 309.86,197.74205 L309.86,197.74205 Z M269.68,140.93005 C266.94,140.93005 264.712,138.70605 264.712,135.97005 C264.712,133.23805 266.944,131.01405 269.68,131.01405 C272.416,131.01405 274.64,133.23805 274.64,135.97005 C274.64,138.70605 272.416,140.93005 269.68,140.93005 Z" id="Shape" fill="#163656"></path>
            <path d="M118.812,360.03405 C51.496,333.72205 8,270.01805 8,197.74205 C8,106.07805 79.18,30.7780502 169.16,24.0860502 L148.896,38.8460502 C147.112,40.1460502 146.716,42.6460502 148.016,44.4340502 C148.8,45.5100502 150.02,46.0780502 151.256,46.0780502 C152.072,46.0780502 152.896,45.8260502 153.608,45.3100502 L184.54,22.7780502 C184.56,22.7660502 184.568,22.7420502 184.588,22.7260502 C184.98,22.4300502 185.312,22.0700502 185.572,21.6500502 C185.656,21.5220502 185.68,21.3780502 185.744,21.2420502 C185.864,20.9900502 186.008,20.7460502 186.076,20.4620502 C186.088,20.4100502 186.076,20.3580502 186.088,20.3020502 C186.124,20.1180502 186.112,19.9340502 186.124,19.7420502 C186.14,19.4380502 186.144,19.1460502 186.092,18.8540502 C186.06,18.6740502 186.004,18.5060502 185.944,18.3260502 C185.848,18.0220502 185.716,17.7420502 185.548,17.4660502 C185.492,17.3780502 185.48,17.2700502 185.42,17.1820502 C185.372,17.1180502 185.3,17.0860502 185.248,17.0260502 C185.036,16.7700502 184.788,16.5580502 184.512,16.3580502 C184.38,16.2620502 184.26,16.1460502 184.116,16.0660502 C184.064,16.0380502 184.032,15.9900502 183.98,15.9660502 L153.048,0.42605022 C151.06,-0.56594978 148.668,0.23405022 147.676,2.20605022 C146.684,4.17805022 147.48,6.58205022 149.452,7.57405022 L166.62,16.1980502 C73.42,24.1180502 0,102.51405 0,197.73005 C0,273.32605 45.492,339.95805 115.9,367.47805 C116.38,367.66605 116.872,367.75005 117.356,367.75005 C118.952,367.75005 120.464,366.78605 121.084,365.20605 C121.888,363.15805 120.872,360.83805 118.812,360.03405 Z" id="Path" fill="#D82B5D"></path>
            <path d="M364.368,197.74205 C364.368,122.13405 318.88,55.4980502 248.48,27.9820502 C246.416,27.1740502 244.1,28.1940502 243.296,30.2500502 C242.492,32.3100502 243.508,34.6300502 245.564,35.4300502 C312.872,61.7420502 356.364,125.45005 356.364,197.74205 C356.364,289.39405 285.188,364.68605 195.212,371.37805 L215.472,356.62605 C217.256,355.32605 217.652,352.82205 216.352,351.03805 C215.048,349.25405 212.548,348.86205 210.764,350.15805 L179.828,372.68605 C179.808,372.70205 179.796,372.72605 179.776,372.74205 C179.388,373.03405 179.052,373.39405 178.796,373.81405 C178.712,373.94205 178.688,374.08605 178.624,374.22205 C178.504,374.47405 178.36,374.71805 178.292,375.00205 C178.28,375.05805 178.292,375.10605 178.28,375.16205 C178.244,375.34605 178.256,375.53005 178.244,375.72205 C178.228,376.02205 178.224,376.31405 178.276,376.61005 C178.308,376.79405 178.364,376.96205 178.424,377.14205 C178.52,377.44605 178.652,377.72605 178.816,377.99805 C178.876,378.08605 178.888,378.19405 178.948,378.28205 C178.992,378.34205 179.056,378.35805 179.1,378.41005 C179.452,378.84605 179.86,379.23805 180.384,379.49805 L211.32,395.04605 C211.9,395.33405 212.512,395.47005 213.112,395.47005 C214.576,395.47005 215.988,394.66605 216.692,393.26605 C217.684,391.29005 216.888,388.88605 214.916,387.89405 L197.74,379.26605 C290.94,371.33805 364.368,292.95405 364.368,197.74205 L364.368,197.74205 Z" id="Path" fill="#79C2C4"></path>
        </g>
    </g>
</svg>