<?xml version="1.0" encoding="UTF-8"?>
<svg width="350px" height="344px" viewBox="0 0 350 344" version="1.1" xmlns="http://www.w3.org/2000/svg" xmlns:xlink="http://www.w3.org/1999/xlink">
    <title>light-bulb</title>
    <g id="Page-1" stroke="none" stroke-width="1" fill="none" fill-rule="evenodd">
        <g id="light-bulb" transform="translate(0.912000, 0.476000)" fill-rule="nonzero">
            <path d="M174.096,95.476 C130.744,95.476 95.472,130.74 95.472,174.092 C95.472,211.2 121.348,242.312 155.984,250.52 C156.544,250.808 157.152,251.008 157.796,251.008 C157.816,251.008 157.836,251 157.856,251 C163.1,252.104 168.528,252.708 174.1,252.708 C217.444,252.708 252.712,217.444 252.712,174.092 C252.712,130.74 217.44,95.476 174.096,95.476 L174.096,95.476 Z M160.888,243.432 L139.768,174.084 L153.324,177.944 C154.756,178.344 156.304,177.924 157.328,176.844 L173.188,160.048 L186.248,178.932 C187.332,180.504 189.372,181.088 191.128,180.332 L208.016,173.008 L186.404,243.576 C182.4,244.284 178.304,244.72 174.1,244.72 C169.58,244.712 165.172,244.244 160.888,243.432 L160.888,243.432 Z M195.432,241.4 L218.2,167.056 C218.656,165.564 218.204,163.944 217.04,162.904 C215.876,161.864 214.216,161.604 212.784,162.212 L190.952,171.676 L176.952,151.432 C176.268,150.44 175.168,149.808 173.964,149.716 C172.776,149.632 171.584,150.08 170.752,150.96 L153.168,169.58 L134.888,164.376 C133.48,163.98 131.964,164.376 130.94,165.424 C129.912,166.468 129.54,167.992 129.968,169.388 L151.792,241.044 C123.752,231.684 103.464,205.232 103.464,174.092 C103.464,135.156 135.144,103.476 174.088,103.476 C213.024,103.476 244.700002,135.156 244.700002,174.092 C244.708,205.596 223.968,232.328 195.432,241.4 L195.432,241.4 Z" id="Shape" fill="#163656"></path>
            <path d="M211.772,268.388 L137.104,261.832 C134.916,261.636 132.96,263.268 132.772,265.464 C132.58,267.668 134.204,269.608 136.408,269.8 L211.076,276.356 C211.196,276.368 211.312,276.372 211.428,276.372 C213.48,276.372 215.228,274.8 215.408,272.724 C215.6,270.52 213.976,268.58 211.772,268.388 Z" id="Path" fill="#163656"></path>
            <path d="M211.068,296.268 C211.188,296.28 211.304,296.284 211.42,296.284 C213.472,296.284 215.22,294.712 215.4,292.632 C215.592,290.432 213.968,288.492 211.764,288.3 L137.108,281.752 C134.912,281.548 132.964,283.188 132.776,285.388 C132.584,287.588 134.208,289.528 136.412,289.72 L211.068,296.268 Z" id="Path" fill="#163656"></path>
            <path d="M211.772,310.396 L137.104,303.844 C134.916,303.62 132.96,305.28 132.772,307.48 C132.58,309.68 134.204,311.62 136.408,311.812 L211.076,318.364 C211.196,318.376 211.312,318.38 211.428,318.38 C213.48,318.38 215.228,316.808 215.408,314.728 C215.6,312.528 213.976,310.588 211.772,310.396 L211.772,310.396 Z" id="Path" fill="#163656"></path>
            <path d="M190.336,320.672 L158.672,317.66 C157.6,317.556 156.56,317.888 155.744,318.56 C154.924,319.236 154.412,320.212 154.312,321.272 C153.292,332.196 161.336,341.928 172.248,342.956 C172.884,343.02 173.512,343.044 174.14,343.044 C184.452,343.044 192.968,335.3 193.94,325.032 C194.148,322.832 192.532,320.88 190.336,320.672 L190.336,320.672 Z M172.996,334.992 C167.868,334.508 163.8,330.804 162.588,326.068 L184.916,328.192 C182.868,332.608 178.224,335.456 172.996,334.992 L172.996,334.992 Z" id="Shape" fill="#79C2C4"></path>
            <path d="M248.104,104.068 C249.128,104.068 250.152,103.676 250.932,102.896 L297.184,56.644 C298.748,55.08 298.748,52.552 297.184,50.988 C295.62,49.424 293.092,49.424 291.528,50.988 L245.276,97.24 C243.712,98.804 243.712,101.332 245.276,102.896 C246.06,103.676 247.084,104.068 248.104,104.068 L248.104,104.068 Z" id="Path" fill="#D82B5D"></path>
            <path d="M174.084,73.408 C176.292,73.408 178.084,71.616 178.084,69.408 L178.076,4 C178.076,1.788 176.284,0 174.076,0 C171.868,0 170.076,1.792 170.076,4 L170.084,69.408 C170.084,71.616 171.872,73.408 174.084,73.408 Z" id="Path" fill="#D82B5D"></path>
            <path d="M97.232,102.904 C98.012,103.684 99.036,104.076 100.06,104.076 C101.084,104.076 102.108,103.684 102.888,102.904 C104.452,101.34 104.452,98.812 102.888,97.248 L56.636,51 C55.072,49.436 52.544,49.436 50.98,51 C49.416,52.564 49.416,55.092 50.98,56.656 L97.232,102.904 Z" id="Path" fill="#D82B5D"></path>
            <path d="M69.4,170.1 L4,170.1 C1.792,170.1 0,171.888 0,174.1 C0,176.312 1.792,178.1 4,178.1 L69.4,178.1 C71.608,178.1 73.4,176.312 73.4,174.1 C73.4,171.888 71.608,170.1 69.4,170.1 L69.4,170.1 Z" id="Path" fill="#D82B5D"></path>
            <path d="M344.176,170.076 L278.776,170.076 C276.568,170.076 274.776,171.864 274.776,174.076 C274.776,176.288 276.568,178.076 278.776,178.076 L344.176,178.076 C346.384,178.076 348.176,176.288 348.176,174.076 C348.176,171.864 346.384,170.076 344.176,170.076 L344.176,170.076 Z" id="Path" fill="#D82B5D"></path>
        </g>
    </g>
</svg>