<svg width="43" height="43" viewBox="0 0 43 43" fill="none" xmlns="http://www.w3.org/2000/svg">
<g clip-path="url(#clip0_191_14533)">
<path d="M34.6523 13.2694C34.5211 13.0733 34.2888 12.9692 34.0559 13.0009L23.5742 14.4256L24.9224 7.34735C24.9862 7.01226 24.7664 6.68888 24.4313 6.62505C24.097 6.56132 23.7729 6.78119 23.709 7.11619L22.2002 15.0377C22.163 15.2328 22.222 15.434 22.3587 15.5782C22.4953 15.7224 22.6933 15.792 22.89 15.7652L32.9706 14.395L18.8264 38.7493L21.3263 25.8328C21.3911 25.498 21.1722 25.1739 20.8373 25.1091C20.5025 25.0441 20.1783 25.2632 20.1136 25.5981L16.9195 42.101C16.8623 42.3969 17.0269 42.6909 17.309 42.7966C17.3801 42.8233 17.4534 42.8361 17.5257 42.8361C17.7405 42.8361 17.9467 42.7236 18.0599 42.5286L34.6731 13.9231C34.7916 13.7191 34.7836 13.4654 34.6523 13.2694Z" fill="#D82B5D"/>
<path d="M25.6999 0.726178C25.4375 0.609653 25.1298 0.688955 24.9567 0.917641L8.45341 22.7018C8.30477 22.8981 8.2869 23.1638 8.40779 23.3783C8.52876 23.5927 8.76494 23.7146 9.01034 23.689L20.7232 22.4561L20.6262 22.9577C20.5614 23.2926 20.7803 23.6166 21.1152 23.6814C21.1548 23.6891 21.1943 23.6928 21.2332 23.6928C21.5232 23.6928 21.7818 23.4877 21.8389 23.1924L22.0945 21.8719C22.1317 21.6797 22.0756 21.4813 21.9433 21.337C21.811 21.1928 21.6189 21.1203 21.4235 21.1403L10.299 22.3113L24.3487 3.76563L24.2134 4.47565C24.1496 4.81073 24.3695 5.13412 24.7046 5.19794C25.0392 5.26192 25.3631 5.04188 25.4269 4.7068L26.0556 1.40614C26.1093 1.12434 25.9619 0.842703 25.6999 0.726178Z" fill="#D82B5D"/>
</g>
<defs>
<clipPath id="clip0_191_14533">
<rect width="42.1632" height="42.1632" fill="white" transform="translate(0.460938 0.672897)"/>
</clipPath>
</defs>
</svg>
