<svg width="43" height="43" viewBox="0 0 43 43" fill="none" xmlns="http://www.w3.org/2000/svg">
<g clip-path="url(#clip0_191_14544)">
<path d="M35.2545 22.3362C34.9156 22.3362 34.6409 22.6109 34.6409 22.9498C34.6409 23.3794 34.2914 23.7289 33.8618 23.7289C33.4322 23.7289 33.0826 23.3794 33.0826 22.9498C33.0826 22.6108 32.8079 22.3362 32.4691 22.3362C32.1302 22.3362 31.8555 22.6109 31.8555 22.9498C31.8555 24.0561 32.7556 24.9561 33.8618 24.9561C34.968 24.9561 35.8681 24.056 35.8681 22.9498C35.8681 22.6108 35.5933 22.3362 35.2545 22.3362Z" fill="#D82B5D"/>
<path d="M41.0137 22.4364L39.2866 21.8832C39.0654 21.8123 38.8911 21.6357 38.8204 21.4108C38.4564 20.2536 37.9071 19.1671 37.1878 18.1816C36.8599 17.7324 36.4954 17.3034 36.0971 16.895C36.3519 15.7773 36.4904 14.5123 36.4725 13.4194C36.4468 11.856 36.1344 10.9391 35.5174 10.6159C35.1851 10.4417 34.1739 9.91232 28.7003 12.4179C28.5707 12.4772 28.4496 12.5502 28.3376 12.6339C27.9685 12.5348 27.5914 12.443 27.2119 12.3607C27.1662 12.3507 27.1191 12.3419 27.0731 12.3322C27.5166 11.3632 27.7756 10.3109 27.8243 9.22453C27.8394 8.88591 27.5773 8.59916 27.2387 8.5841C26.901 8.5673 26.6133 8.83098 26.5982 9.1696C26.5183 10.9559 25.7773 12.6365 24.5119 13.902C23.7558 14.6581 22.8706 15.2073 21.9271 15.5531C20.2909 15.3235 18.6243 15.3235 16.9881 15.5531C16.0445 15.2073 15.1593 14.6581 14.4033 13.902C13.0532 12.552 12.3097 10.757 12.3097 8.8477C12.3097 6.93833 13.0532 5.14343 14.4033 3.79339C15.7533 2.44326 17.5484 1.69972 19.4576 1.69972C21.3668 1.69972 23.1619 2.44326 24.5119 3.79339C25.0544 4.33591 25.5027 4.95501 25.8444 5.63333C25.9968 5.93605 26.3658 6.05793 26.6685 5.90541C26.9712 5.75307 27.093 5.38406 26.9406 5.08142C26.5401 4.286 26.015 3.56075 25.3798 2.9255C23.7979 1.34364 21.6947 0.472458 19.4577 0.472458C17.2206 0.472458 15.1174 1.34364 13.5356 2.9255C11.9537 4.50744 11.0825 6.61058 11.0825 8.84762C11.0825 11.0847 11.9537 13.1879 13.5356 14.7697C13.9919 15.226 14.4883 15.6184 15.0133 15.9472C15.0135 15.9472 15.0137 15.9471 15.0138 15.9471C14.6323 16.0462 14.2536 16.1576 13.8792 16.2827C13.5578 16.3902 13.3844 16.7378 13.4918 17.0593C13.5992 17.3807 13.947 17.5541 14.2683 17.4468C17.6147 16.328 21.3007 16.328 24.647 17.4468C24.7116 17.4683 24.7772 17.4785 24.8416 17.4785C25.0983 17.4785 25.3376 17.3162 25.4235 17.0593C25.531 16.7379 25.3576 16.3902 25.0361 16.2827C24.6617 16.1576 24.2831 16.0462 23.9015 15.9471C23.9017 15.9471 23.9019 15.9472 23.902 15.9472C24.4272 15.6184 24.9235 15.226 25.3798 14.7697C25.7835 14.3661 26.1398 13.9252 26.4492 13.4567C26.6183 13.4896 26.7862 13.524 26.9517 13.5599C27.1721 13.6078 27.3914 13.6592 27.6088 13.7131C27.602 13.7398 27.595 13.7664 27.5893 13.7935C27.2901 15.2136 27.3095 16.4696 27.647 17.5264C27.9504 18.4763 28.498 19.2459 29.2743 19.8138C30.1893 20.4832 31.2939 20.7723 32.2945 20.7723C33.0476 20.7723 33.7419 20.6084 34.2518 20.3196C34.8286 19.9929 35.3119 19.3046 35.6944 18.2711C35.8712 18.4775 36.0388 18.6888 36.1967 18.9053C36.8371 19.7826 37.326 20.7496 37.6498 21.7791C37.84 22.3838 38.312 22.8596 38.9124 23.0521L40.6395 23.6053C41.0927 23.7505 41.3971 24.1676 41.3971 24.6434V27.5071C41.3971 27.9829 41.0927 28.4001 40.6395 28.5452L37.857 29.4365C37.4118 29.5792 37.035 29.8851 36.7961 30.2981C35.7029 32.1873 33.9842 33.7507 31.6874 34.9449C31.422 35.083 31.2382 35.33 31.1829 35.6226L30.2917 40.3415C30.2671 40.4716 30.1532 40.5659 30.0209 40.5659H27.1232C26.9909 40.5659 26.877 40.4715 26.8524 40.3415L26.3588 37.7336C26.2616 37.2205 25.7803 36.8796 25.2624 36.9581C24.0142 37.1469 22.728 37.2425 21.4398 37.2425C20.4814 37.2425 19.5353 37.189 18.6276 37.0835C18.1257 37.0258 17.6581 37.368 17.5643 37.8635L17.0952 40.3415C17.0706 40.4716 16.9567 40.5659 16.8244 40.5659H13.9267C13.7944 40.5659 13.6805 40.4715 13.6555 40.3396L12.7975 35.8826C12.7422 35.5955 12.5619 35.3513 12.3024 35.2127C8.38712 33.1226 6.31767 29.6306 6.31767 25.1145C6.31767 22.8328 6.81687 20.8151 7.80137 19.1174C8.72006 17.5331 10.0619 16.2231 11.7895 15.2238C12.0828 15.0541 12.183 14.6787 12.0134 14.3853C11.8438 14.092 11.4684 13.9919 11.175 14.1614C7.82508 16.0993 5.80463 19.0889 5.24835 22.8861V22.886C5.18931 22.8806 5.13018 22.8755 5.0713 22.8694C5.08201 22.4597 5.00789 22.0463 4.84648 21.6451C4.49049 20.7602 3.75922 20.1215 2.9834 20.018C2.37203 19.9361 1.79023 20.1957 1.38647 20.7292C0.801043 21.5027 0.896486 22.1149 1.07955 22.4923C1.38861 23.1291 2.18304 23.5795 3.50138 23.8627C3.46515 23.917 3.42529 23.9715 3.38164 24.0263C2.6027 25.0032 1.68499 25.2192 1.0891 25.2395C0.740269 25.2513 0.460938 25.5314 0.460938 25.8805V25.8834C0.460938 26.2277 0.73261 26.5086 1.07659 26.5243C1.12064 26.5263 1.16668 26.5274 1.2146 26.5274C1.9686 26.5274 3.17873 26.2493 4.34135 24.7915C4.52491 24.5614 4.67446 24.3186 4.78942 24.0678C4.9052 24.0809 5.01645 24.0921 5.12302 24.102C5.12302 24.1017 5.12302 24.1015 5.1231 24.1013C5.10218 24.4338 5.09057 24.7712 5.09057 25.1145C5.09057 27.6697 5.69971 29.9479 6.90095 31.8862C8.00856 33.6732 9.59437 35.1364 11.6159 36.2367L12.4501 40.5696C12.5843 41.2785 13.2053 41.793 13.9267 41.793H16.8244C17.5458 41.793 18.1668 41.2785 18.301 40.5696L18.7251 38.3291C19.6059 38.4224 20.5178 38.4696 21.4398 38.4696C22.7046 38.4696 23.9681 38.3815 25.1994 38.2076L25.6464 40.5698C25.7807 41.2787 26.4017 41.7931 27.1231 41.7931H30.0207C30.7422 41.7931 31.3632 41.2786 31.4974 40.5695L32.3651 35.9751C34.8165 34.6788 36.6643 32.976 37.8582 30.9126C37.9442 30.7639 38.0768 30.6548 38.2312 30.6053L41.0137 29.714C41.9769 29.4053 42.6241 28.5185 42.6241 27.507V24.6432C42.6241 23.6318 41.9769 22.745 41.0137 22.4364ZM35.1532 15.1438C34.917 17.1635 34.2835 18.8912 33.6469 19.2517C32.9234 19.6616 31.2529 19.7407 29.9987 18.8232C28.743 17.9047 28.3251 16.2529 28.79 14.0464C28.79 14.0464 28.79 14.0464 28.79 14.0464C28.8367 13.8248 28.9941 13.6331 29.2111 13.5337C32.2831 12.1275 34.0542 11.6676 34.7122 11.6676C34.8115 11.6676 34.8854 11.6781 34.9347 11.6973C35.1323 11.908 35.3916 13.1054 35.1532 15.1438ZM2.18378 21.9564C2.12029 21.8255 2.27017 21.5953 2.3652 21.4696C2.51582 21.2707 2.65458 21.23 2.75941 21.23C2.78156 21.23 2.80223 21.2318 2.82117 21.2344C3.1033 21.272 3.49858 21.5825 3.708 22.103C3.75732 22.2255 3.82139 22.4285 3.83638 22.6817C2.98694 22.5057 2.32699 22.252 2.18378 21.9564Z" fill="#D82B5D"/>
<path d="M20.0543 8.14435V5.94857C20.8115 6.00267 21.0928 6.34879 21.3524 6.34879C21.6769 6.34879 21.8283 5.93778 21.8283 5.73224C21.8283 5.20215 20.7898 4.97503 20.0543 4.95337V4.66119C20.0543 4.53141 19.892 4.41241 19.7297 4.41241C19.5458 4.41241 19.416 4.53141 19.416 4.66119V4.97486C18.3883 5.08307 17.3607 5.62395 17.3607 6.98692C17.3607 8.37155 18.4424 8.76099 19.416 9.1071V11.6492C18.3126 11.5626 18.0206 10.8054 17.6636 10.8054C17.3931 10.8054 17.166 11.1624 17.166 11.422C17.166 11.952 18.0747 12.6768 19.416 12.6985V13.0338C19.416 13.1636 19.5458 13.2826 19.7297 13.2826C19.892 13.2826 20.0543 13.1636 20.0543 13.0338V12.666C21.2226 12.5037 22.023 11.7682 22.023 10.4376C22.023 8.96653 20.9954 8.49047 20.0543 8.14435ZM19.4809 7.93889C18.9076 7.72255 18.4424 7.49543 18.4424 6.87888C18.4424 6.31635 18.8751 6.04591 19.4809 5.97023V7.93889ZM19.9893 11.6275V9.34509C20.5193 9.57222 20.9412 9.8751 20.9412 10.5565C20.9412 11.1733 20.5734 11.5194 19.9893 11.6275Z" fill="#D82B5D"/>
</g>
<defs>
<clipPath id="clip0_191_14544">
<rect width="42.1632" height="42.1632" fill="white" transform="translate(0.460938 0.051239)"/>
</clipPath>
</defs>
</svg>
