<svg width="43" height="43" viewBox="0 0 43 43" fill="none" xmlns="http://www.w3.org/2000/svg">
<g clip-path="url(#clip0_191_14575)">
<path d="M14.611 21.0787L15.0844 19.8359H18.2626L18.731 21.077C18.824 21.3235 19.0583 21.4755 19.307 21.4755C19.3792 21.4755 19.4528 21.4627 19.5243 21.4357C19.8425 21.3156 20.003 20.9605 19.8829 20.6423L17.3987 14.0596C17.3967 14.0539 17.3944 14.0484 17.3921 14.0428C17.2733 13.754 16.995 13.5676 16.6829 13.5676C16.6826 13.5676 16.6823 13.5676 16.682 13.5676C16.3696 13.5679 16.0913 13.7549 15.9729 14.0441C15.971 14.0488 15.9691 14.0534 15.9674 14.0581L13.4604 20.6406C13.3394 20.9584 13.4989 21.3141 13.8167 21.435C14.1339 21.5559 14.49 21.3965 14.611 21.0787ZM16.6808 15.6444L17.798 18.6046H15.5534L16.6808 15.6444Z" fill="#D82B5D"/>
<path d="M28.6786 20.7609V14.0844C28.6786 13.7444 28.4029 13.4688 28.0629 13.4688C27.7229 13.4688 27.4473 13.7444 27.4473 14.0844V20.7609C27.4473 21.1009 27.7229 21.3765 28.0629 21.3765C28.4029 21.3765 28.6786 21.1009 28.6786 20.7609Z" fill="#D82B5D"/>
<path d="M21.8191 21.4752C22.1592 21.4752 22.4348 21.1996 22.4348 20.8596V18.5718C22.8563 18.5695 23.3941 18.567 23.6781 18.567C25.0769 18.567 26.2148 17.4455 26.2148 16.0672C26.2148 14.6889 25.0769 13.5675 23.6781 13.5675H21.8191C21.5164 13.5605 21.1907 13.8366 21.2035 14.1831V20.8597C21.2034 21.1996 21.479 21.4752 21.8191 21.4752ZM23.6781 14.7988C24.3857 14.7988 24.9835 15.3797 24.9835 16.0672C24.9835 16.7548 24.3857 17.3357 23.6781 17.3357C23.3954 17.3357 22.8649 17.3382 22.4443 17.3404C22.442 16.9075 22.4395 16.356 22.4395 16.0672C22.4395 15.8228 22.438 15.2496 22.4367 14.7988H23.6781Z" fill="#D82B5D"/>
<path d="M25.4859 37.1676C25.1458 37.1676 24.8702 37.4432 24.8702 37.7832V40.9633C24.8702 41.317 24.5824 41.6049 24.2287 41.6049H18.8565C18.5027 41.6049 18.215 41.317 18.215 40.9633V37.6453C18.215 37.2545 17.9504 36.9119 17.5714 36.8122C16.2168 36.4559 14.9157 35.9166 13.7042 35.2092C13.3658 35.0118 12.9365 35.0668 12.66 35.3433L10.313 37.6902C10.1918 37.8113 10.0307 37.8781 9.85937 37.8781C9.688 37.8781 9.52693 37.8114 9.40571 37.6902L5.60682 33.8914C5.48568 33.7702 5.4189 33.6091 5.4189 33.4377C5.4189 33.2663 5.48568 33.1053 5.6069 32.9841L7.95355 30.6374C8.23033 30.3609 8.2855 29.9313 8.08778 29.593C7.38047 28.3815 6.84125 27.0804 6.48492 25.7258C6.38528 25.3469 6.0427 25.0823 5.65187 25.0823H2.3339C1.98013 25.0823 1.69232 24.7945 1.69232 24.4408V19.0685C1.69232 18.7147 1.98021 18.427 2.3339 18.427H5.65187C6.0427 18.427 6.38519 18.1624 6.48492 17.7834C6.84125 16.4289 7.38047 15.1279 8.0877 13.9165C8.28542 13.578 8.23041 13.1484 7.95379 12.8721L5.60682 10.5251C5.48568 10.4039 5.4189 10.2429 5.4189 10.0715C5.4189 9.90013 5.48568 9.73905 5.6069 9.61783L9.40571 5.81903C9.52693 5.69781 9.68792 5.63111 9.85937 5.63111C10.0307 5.63111 10.1918 5.69781 10.313 5.81903L12.6601 8.166C12.9365 8.4422 13.3659 8.49738 13.7043 8.2999C14.9157 7.5926 16.2168 7.05337 17.5714 6.69704C17.9503 6.5974 18.215 6.25482 18.215 5.86391V2.54578C18.215 2.19201 18.5028 1.90419 18.8565 1.90419H24.2287C24.5825 1.90419 24.8702 2.19201 24.8702 2.54578V5.86374C24.8702 6.25458 25.1348 6.59715 25.5139 6.69688C26.8684 7.05312 28.1695 7.59243 29.381 8.29982C29.7194 8.4973 30.1488 8.4422 30.4252 8.16576L32.7722 5.81886C32.8933 5.69773 33.0544 5.63094 33.2258 5.63094C33.3971 5.63094 33.5582 5.69764 33.6795 5.81895L34.0549 6.19421C34.2952 6.43459 34.685 6.43451 34.9255 6.19421C35.1659 5.95375 35.1659 5.56391 34.9255 5.32353L34.5502 4.94826C34.1964 4.59448 33.7261 4.39964 33.2258 4.39964C32.7256 4.39964 32.2553 4.59448 31.9017 4.94826L29.7548 7.09504C28.6006 6.44719 27.3741 5.93885 26.1016 5.58087V2.54578C26.1015 1.51311 25.2613 0.672897 24.2286 0.672897H18.8564C17.8238 0.672897 16.9835 1.51311 16.9835 2.54578V5.58079C15.711 5.93877 14.4844 6.44719 13.3303 7.09496L11.1836 4.94826C10.8299 4.59448 10.3596 4.39964 9.85929 4.39964C9.35901 4.39964 8.88871 4.59448 8.53494 4.94826L4.7363 8.74698C4.38252 9.10076 4.18768 9.57106 4.18768 10.0713C4.18768 10.5716 4.38252 11.0419 4.73622 11.3956L6.883 13.5425C6.23523 14.6967 5.72689 15.9231 5.36891 17.1955H2.3339C1.30115 17.1954 0.460938 18.0356 0.460938 19.0683V24.4407C0.460938 25.4733 1.30115 26.3135 2.3339 26.3135H5.36891C5.72689 27.5859 6.23523 28.8124 6.883 29.9667L4.73622 32.1135C4.38252 32.4672 4.18768 32.9375 4.18768 33.4378C4.18768 33.9381 4.38252 34.4084 4.73622 34.7622L8.53502 38.561C8.8888 38.9147 9.3591 39.1096 9.85937 39.1096C10.3596 39.1096 10.8299 38.9147 11.1836 38.561L13.3304 36.4142C14.4846 37.062 15.7111 37.5704 16.9836 37.9283V40.9634C16.9836 41.996 17.8238 42.8362 18.8565 42.8362H24.2287C25.2614 42.8362 26.1016 41.996 26.1016 40.9634V37.7833C26.1015 37.4432 25.8259 37.1676 25.4859 37.1676Z" fill="#D82B5D"/>
<path d="M9.69639 23.8881C9.63652 23.5533 9.3161 23.3303 8.982 23.3904C8.64725 23.4503 8.42449 23.7702 8.48436 24.1049C9.6156 30.4293 15.107 35.0196 21.5418 35.0196C28.8562 35.0196 34.807 29.0689 34.807 21.7544C34.807 14.4399 28.8562 8.4893 21.5418 8.4893C14.5639 8.4893 8.74912 13.9386 8.30402 20.8952C8.28228 21.2346 8.53978 21.5273 8.87907 21.5489C9.21868 21.5703 9.51102 21.3132 9.53268 20.9739C9.9366 14.6637 15.2115 9.7206 21.5418 9.7206C28.1773 9.7206 33.5757 15.119 33.5757 21.7545C33.5757 25.0637 32.2328 28.0651 30.0635 30.2428V26.3487C30.4208 26.1376 30.6613 25.7495 30.6613 25.3044C30.6613 24.6343 30.118 24.091 29.4479 24.091C28.7777 24.091 28.2344 24.6343 28.2344 25.3044C28.2344 25.7495 28.4749 26.1376 28.8322 26.3488V31.3217C28.2099 31.7971 27.5401 32.2133 26.8312 32.5617V30.5361C27.1927 30.326 27.4364 29.9355 27.4364 29.4872C27.4364 28.8171 26.8931 28.2738 26.223 28.2738C25.5528 28.2738 25.0095 28.8171 25.0095 29.4872C25.0095 29.9293 25.2466 30.3149 25.5998 30.5271V33.0835C24.9877 33.3035 24.353 33.4754 23.6998 33.5942V28.5034L25.3244 26.8789C25.5183 26.6851 25.6251 26.4273 25.6251 26.153V23.3859C25.9824 23.1748 26.2229 22.7867 26.2229 22.3416C26.2229 21.6714 25.6796 21.1281 25.0095 21.1281C24.3393 21.1281 23.796 21.6714 23.796 22.3416C23.796 22.7867 24.0364 23.1748 24.3938 23.3859V26.0681L22.769 27.6929C22.5752 27.8867 22.4685 28.1443 22.4685 28.4184V33.753C22.1626 33.7763 21.8536 33.7883 21.5417 33.7883C21.2329 33.7883 20.9266 33.7759 20.623 33.753V28.5293C20.9803 28.3182 21.2208 27.9302 21.2208 27.485C21.2208 26.8148 20.6775 26.2715 20.0073 26.2715C19.3372 26.2715 18.7939 26.8148 18.7939 27.485C18.7939 27.9301 19.0343 28.3182 19.3917 28.5293V33.5969C18.8185 33.4937 18.2588 33.3494 17.7153 33.1678V31.2317C17.7153 30.9578 17.6086 30.7001 17.4148 30.5061L15.79 28.8815V26.1992C16.1474 25.9881 16.3878 25.6001 16.3878 25.155C16.3878 24.4848 15.8446 23.9415 15.1744 23.9415C14.5042 23.9415 13.961 24.4848 13.961 25.155C13.961 25.6001 14.2014 25.9882 14.5587 26.1993V28.9664C14.5587 29.2404 14.6655 29.4981 14.8592 29.692L16.484 31.3167V32.6794C13.012 31.0749 10.4066 27.8585 9.69639 23.8881Z" fill="#D82B5D"/>
<path d="M40.7521 17.1954H37.7171C37.3592 15.923 36.8507 14.6966 36.203 13.5424L38.3497 11.3956C38.7034 11.0418 38.8983 10.5715 38.8983 10.0712C38.8983 9.57097 38.7034 9.10067 38.3497 8.74698L37.0541 7.45145C36.8138 7.21099 36.4239 7.21107 36.1834 7.45145C35.943 7.69191 35.943 8.08167 36.1834 8.32213L37.4791 9.61775C37.6002 9.73888 37.667 9.89996 37.667 10.0713C37.667 10.2427 37.6002 10.4038 37.479 10.525L35.1323 12.8718C34.8556 13.1483 34.8005 13.5779 34.9981 13.9162C35.7054 15.1278 36.2446 16.4288 36.601 17.7834C36.7007 18.1622 37.0433 18.4268 37.434 18.4268H40.752C41.1058 18.4268 41.3936 18.7146 41.3936 19.0683V24.4406C41.3936 24.7944 41.1057 25.0822 40.752 25.0822H37.434C37.0432 25.0822 36.7006 25.3467 36.601 25.7257C36.2446 27.0803 35.7054 28.3814 34.9982 29.5926C34.8004 29.9312 34.8555 30.3608 35.1321 30.6371L37.479 32.984C37.6002 33.1053 37.667 33.2663 37.667 33.4377C37.667 33.6091 37.6002 33.7702 37.479 33.8914L33.6802 37.6902C33.559 37.8114 33.3979 37.8781 33.2265 37.8781C33.0552 37.8781 32.8941 37.8114 32.7728 37.6902L30.426 35.3434C30.1493 35.0668 29.7198 35.0118 29.3813 35.2094C28.9931 35.4361 28.59 35.6485 28.1831 35.8405C27.8756 35.9857 27.744 36.3526 27.8892 36.6601C28.0343 36.9675 28.4012 37.0991 28.7087 36.954C29.0622 36.787 29.4132 36.606 29.7552 36.414L31.9021 38.5607C32.2558 38.9145 32.7261 39.1093 33.2263 39.1093C33.7266 39.1093 34.1969 38.9145 34.5507 38.5607L38.3494 34.762C38.7032 34.4082 38.898 33.9379 38.898 33.4376C38.898 32.9373 38.7032 32.467 38.3495 32.1133L36.2027 29.9665C36.8505 28.8123 37.3588 27.5858 37.7168 26.3134H40.7518C41.7846 26.3134 42.6248 25.4732 42.6248 24.4405V19.0681C42.6249 18.0356 41.7848 17.1954 40.7521 17.1954Z" fill="#D82B5D"/>
</g>
<defs>
<clipPath id="clip0_191_14575">
<rect width="42.1632" height="42.1632" fill="white" transform="translate(0.460938 0.672897)"/>
</clipPath>
</defs>
</svg>
