<svg width="44" height="44" viewBox="0 0 44 44" fill="none" xmlns="http://www.w3.org/2000/svg">
<g clip-path="url(#clip0_191_14587)">
<path d="M36.0731 41.2081L35.2073 36.1926C35.1468 35.8418 34.8136 35.6062 34.4625 35.6671C34.1117 35.7277 33.8765 36.061 33.937 36.4119L34.8028 41.4274C34.858 41.747 34.7698 42.0726 34.5609 42.3207C34.352 42.5687 34.0461 42.711 33.7218 42.711H30.9872L30.3936 39.5716C30.3274 39.2218 29.9902 38.9919 29.6405 39.0579C29.2908 39.1241 29.0608 39.4612 29.1269 39.811L29.6752 42.7109H14.3254L14.8736 39.811C14.9398 39.4612 14.7098 39.124 14.36 39.0579C14.0101 38.9918 13.6731 39.2218 13.6069 39.5716L13.0134 42.7109H10.2788C9.95449 42.7109 9.64864 42.5686 9.43972 42.3206C9.23081 42.0725 9.14255 41.747 9.19781 41.4273L10.7691 32.325C10.9456 31.3028 11.6583 30.4407 12.629 30.075L14.1265 29.511L17.7866 34.588C18.0385 34.9375 18.4288 35.1637 18.8572 35.2088C18.91 35.2143 18.9628 35.2172 19.0153 35.2172C19.3896 35.2172 19.7537 35.0782 20.0336 34.8245L22.0003 33.0414L23.9671 34.8246C24.2469 35.0784 24.611 35.2174 24.9854 35.2174C25.038 35.2174 25.0907 35.2146 25.1435 35.209C25.5719 35.1639 25.9622 34.9376 26.2141 34.5881L29.8742 29.5112L31.3717 30.0752C32.3424 30.4408 33.0551 31.303 33.2316 32.3252L33.5009 33.8852C33.5614 34.2359 33.8948 34.4714 34.2457 34.4107C34.5965 34.3501 34.8317 34.0167 34.7712 33.6658L34.5019 32.1059C34.248 30.6353 33.2227 29.3949 31.8261 28.8689L25.3968 26.4684C25.1852 26.3907 25.0431 26.187 25.0431 25.9616V24.9858C27.589 23.8504 29.369 21.297 29.369 18.3341V14.6792H29.9685C30.3244 14.6792 30.613 14.3906 30.613 14.0346C30.613 13.6787 30.3244 13.3901 29.9685 13.3901H25.7395C24.5194 13.3901 23.3322 12.9586 22.3968 12.1752L20.1514 10.2945C19.8875 10.0735 19.5408 9.97562 19.2002 10.0256C18.8596 10.0758 18.5559 10.2696 18.367 10.5574L18.049 11.0416C17.1456 12.4175 15.6252 13.2925 13.9821 13.3824C13.6267 13.4018 13.3543 13.7057 13.3738 14.0611C13.3932 14.4165 13.6977 14.6896 14.0525 14.6694C14.2472 14.6588 14.4404 14.6392 14.6318 14.6113V18.3342C14.6318 21.297 16.4118 23.8505 18.9577 24.9859V25.9617C18.9577 26.1871 18.8156 26.3908 18.604 26.4685L12.1747 28.869C10.7781 29.395 9.75271 30.6353 9.49885 32.106L7.92757 41.2081C7.8076 41.9032 7.99932 42.6114 8.45376 43.151C8.9082 43.6905 9.57344 44 10.2788 44H33.7218C34.4272 44 35.0924 43.6905 35.5469 43.151C36.0013 42.6114 36.1931 41.9032 36.0731 41.2081ZM19.1678 33.8696C19.1025 33.9287 19.0297 33.931 18.9921 33.9269C18.9545 33.923 18.8837 33.9057 18.8323 33.8343L15.3763 29.0404L16.4398 28.6399L20.8353 32.3576L19.1678 33.8696ZM25.1684 33.8343C25.117 33.9058 25.0462 33.923 25.0086 33.927C24.971 33.931 24.8982 33.9287 24.8329 33.8697L23.1653 32.3577L27.5608 28.64L28.6243 29.0405L25.1684 33.8343ZM15.9209 18.3341V14.2844C17.2188 13.8093 18.3537 12.9262 19.1265 11.7491L19.394 11.3417L21.569 13.1634C22.7361 14.1408 24.2172 14.6792 25.7395 14.6792H28.0798V18.3341C28.0798 21.6379 25.392 24.3256 22.0883 24.3256H21.9123C18.6087 24.3256 15.9209 21.6379 15.9209 18.3341ZM19.0485 27.6784C19.7653 27.4152 20.2468 26.7252 20.2468 25.9616V25.4202C20.7821 25.546 21.3392 25.6147 21.9123 25.6147H22.0883C22.6614 25.6147 23.2185 25.546 23.7538 25.4202V25.9616C23.7538 26.7252 24.2354 27.4152 24.9521 27.6784L26.1718 28.1264L22.2668 31.4293C22.2479 31.4452 22.228 31.4591 22.2074 31.4711C22.1448 31.5074 22.0734 31.5269 22.0003 31.5269C21.9273 31.5269 21.8559 31.5073 21.7934 31.4712C21.7727 31.4591 21.7528 31.4452 21.7339 31.4293L17.8289 28.1264L19.0485 27.6784Z" fill="#D82B5D"/>
<path d="M13.7249 23.1969C13.7761 23.2093 13.8273 23.2152 13.8777 23.2152C14.1681 23.2152 14.4318 23.0176 14.5035 22.7229C14.5877 22.377 14.3755 22.0284 14.0296 21.9442C13.0324 21.7016 12.3359 20.8154 12.3359 19.7892V15.6495V13.6458C12.3359 11.4115 13.4849 9.44161 15.2221 8.29237H28.7779C30.5152 9.44152 31.6641 11.4115 31.6641 13.6458V15.6495V19.7892C31.6641 20.8154 30.9677 21.7016 29.9705 21.9442C29.6247 22.0284 29.4124 22.377 29.4965 22.7229C29.5682 23.0176 29.8319 23.2152 30.1223 23.2152C30.1727 23.2152 30.224 23.2092 30.2752 23.1969C31.852 22.8133 32.9532 21.412 32.9532 19.7893V15.6496V13.6459C32.9532 11.1128 31.7241 8.86196 29.8314 7.45662L30.9081 5.5886C31.4891 4.58055 31.2109 3.30945 30.261 2.63201C29.7067 2.23661 29.1094 1.87498 28.4858 1.55727C28.1687 1.39571 27.7805 1.5217 27.6189 1.83889C27.4573 2.15609 27.5834 2.54418 27.9005 2.70583C28.4675 2.99475 29.0099 3.32303 29.5125 3.68148C29.9193 3.9716 30.0391 4.51481 29.7912 4.94493L28.6048 7.00339H15.3969L14.2095 4.94493C13.9613 4.51473 14.081 3.97143 14.4879 3.68122C15.7407 2.78781 18.3824 1.28906 22.0001 1.28906C23.1433 1.28906 24.2768 1.43799 25.3692 1.73164C25.7129 1.82402 26.0666 1.62035 26.159 1.2766C26.2515 0.932852 26.0477 0.579219 25.7039 0.486836C24.5024 0.163797 23.2562 0 22.0001 0C18.0235 0 15.1176 1.64888 13.7395 2.63166C12.7892 3.30937 12.5112 4.58073 13.0929 5.58903L14.1695 7.45542C12.2762 8.86067 11.0469 11.1123 11.0469 13.6459V15.6496V19.7893C11.0469 21.412 12.1481 22.8132 13.7249 23.1969Z" fill="#D82B5D"/>
<path d="M20.2062 16.4209C20.2062 16.065 19.9176 15.7764 19.5617 15.7764H19.0215C18.6655 15.7764 18.377 16.065 18.377 16.4209C18.377 16.7769 18.6655 17.0655 19.0215 17.0655H19.5617C19.9176 17.0655 20.2062 16.7769 20.2062 16.4209Z" fill="#D82B5D"/>
<path d="M24.4395 17.0655H24.9796C25.3355 17.0655 25.6241 16.7769 25.6241 16.4209C25.6241 16.065 25.3355 15.7764 24.9796 15.7764H24.4395C24.0835 15.7764 23.7949 16.065 23.7949 16.4209C23.7949 16.7769 24.0835 17.0655 24.4395 17.0655Z" fill="#D82B5D"/>
<path d="M21.9994 5.85655C22.3553 5.85655 22.6439 5.56798 22.6439 5.21202V4.79076H23.0652C23.4211 4.79076 23.7097 4.50218 23.7097 4.14623C23.7097 3.79027 23.4211 3.50169 23.0652 3.50169H22.6439V3.08043C22.6439 2.72448 22.3553 2.4359 21.9994 2.4359C21.6434 2.4359 21.3549 2.72448 21.3549 3.08043V3.50169H20.9336C20.5776 3.50169 20.2891 3.79027 20.2891 4.14623C20.2891 4.50218 20.5776 4.79076 20.9336 4.79076H21.3549V5.21202C21.3549 5.56798 21.6434 5.85655 21.9994 5.85655Z" fill="#D82B5D"/>
<path d="M22.6445 35.0735C22.6445 34.7175 22.3559 34.429 22 34.429C21.644 34.429 21.3555 34.7175 21.3555 35.0735V35.5199C21.3555 35.8758 21.644 36.1644 22 36.1644C22.3559 36.1644 22.6445 35.8758 22.6445 35.5199V35.0735Z" fill="#D82B5D"/>
<path d="M22.6445 37.7584C22.6445 37.4024 22.3559 37.1138 22 37.1138C21.644 37.1138 21.3555 37.4024 21.3555 37.7584V38.2047C21.3555 38.5607 21.644 38.8493 22 38.8493C22.3559 38.8493 22.6445 38.5607 22.6445 38.2047V37.7584Z" fill="#D82B5D"/>
<path d="M22 39.9289C21.644 39.9289 21.3555 40.2175 21.3555 40.5734V41.0198C21.3555 41.3757 21.644 41.6643 22 41.6643C22.3559 41.6643 22.6445 41.3757 22.6445 41.0198V40.5734C22.6445 40.2175 22.3559 39.9289 22 39.9289Z" fill="#D82B5D"/>
<path d="M23.825 21.4773L23.9826 21.3919C24.2957 21.2224 24.412 20.8313 24.2424 20.5182C24.0729 20.2051 23.6817 20.0888 23.3687 20.2584L23.211 20.3438C22.4528 20.7544 21.5474 20.7544 20.789 20.3438L20.6313 20.2584C20.3182 20.0888 19.9272 20.2051 19.7576 20.5182C19.5881 20.8312 19.7043 21.2224 20.0174 21.3919L20.1751 21.4774C20.7464 21.7868 21.3732 21.9415 22 21.9415C22.6268 21.9415 23.2536 21.7868 23.825 21.4773Z" fill="#D82B5D"/>
</g>
<defs>
<clipPath id="clip0_191_14587">
<rect width="44" height="44" fill="white"/>
</clipPath>
</defs>
</svg>
