<svg width="43" height="44" viewBox="0 0 43 44" fill="none" xmlns="http://www.w3.org/2000/svg">
<g clip-path="url(#clip0_191_14558)">
<path d="M27.6748 21.2101H22.2042C21.9733 20.2537 21.2192 19.4997 20.2629 19.2687V11.9639C20.2629 11.6226 19.9863 11.346 19.645 11.346C19.3037 11.346 19.0272 11.6226 19.0272 11.9639V19.2687C17.8724 19.5475 17.0117 20.5887 17.0117 21.828C17.0117 23.2799 18.1931 24.4611 19.645 24.4611C20.8842 24.4611 21.9255 23.6005 22.2042 22.4457H27.6748C28.0161 22.4457 28.2927 22.1691 28.2927 21.8279C28.2927 21.4867 28.0161 21.2101 27.6748 21.2101ZM19.6451 23.2254C18.8744 23.2254 18.2475 22.5986 18.2475 21.828C18.2475 21.0573 18.8744 20.4305 19.6451 20.4305C20.4157 20.4305 21.0426 21.0573 21.0426 21.828C21.0425 22.5985 20.4157 23.2254 19.6451 23.2254Z" fill="#D82B5D"/>
<path d="M14.0799 19.9286H10.4517C9.88378 19.9286 9.42188 20.3905 9.42188 20.9584V22.6976C9.42188 23.2655 9.88378 23.7274 10.4517 23.7274H14.0799C14.6477 23.7274 15.1096 23.2655 15.1096 22.6976V20.9584C15.1096 20.3905 14.6477 19.9286 14.0799 19.9286ZM13.8739 22.4917H10.6576V21.1644H13.8739V22.4917Z" fill="#D82B5D"/>
<path d="M38.2715 26.421C38.6354 24.94 38.8264 23.4003 38.8264 21.8279C38.8264 16.7044 36.8312 11.8874 33.2082 8.26436C29.5852 4.64136 24.7683 2.64618 19.6448 2.64618C14.5212 2.64618 9.70407 4.64144 6.08107 8.26444C2.45816 11.8874 0.462891 16.7043 0.462891 21.8279C0.462891 26.9516 2.45816 31.7686 6.08107 35.3915C9.70407 39.0145 14.5211 41.0098 19.6448 41.0098C19.6451 41.0098 19.6452 41.0098 19.6454 41.0098C20.9943 41.0098 22.3419 40.8688 23.6502 40.5908C23.984 40.5199 24.1971 40.1917 24.1261 39.858C24.0553 39.5241 23.7268 39.3113 23.3933 39.3821C22.1692 39.6422 20.9082 39.774 19.6453 39.774C19.6452 39.774 19.6449 39.774 19.6447 39.774C14.851 39.774 10.3443 37.9073 6.95489 34.5177C3.56535 31.1283 1.69864 26.6216 1.69864 21.828C1.69864 17.0344 3.56535 12.5278 6.95497 9.13826C10.3445 5.74873 14.8512 3.88193 19.6448 3.88193C24.4383 3.88193 28.945 5.74873 32.3345 9.13826C35.7241 12.5278 37.5908 17.0345 37.5908 21.828C37.5908 23.2399 37.4258 24.6236 37.1116 25.9576C36.3844 25.7332 35.6122 25.6121 34.8123 25.6121C34.6202 25.6121 34.4299 25.6194 34.2413 25.633C34.5586 24.417 34.7283 23.142 34.7283 21.8279C34.7283 20.5001 34.5555 19.1824 34.2148 17.9116C34.1265 17.582 33.7874 17.3867 33.458 17.4749C33.1284 17.5633 32.9328 17.9021 33.0212 18.2318C33.281 19.201 33.4329 20.2002 33.4774 21.2101H32.3257C31.9844 21.2101 31.7078 21.4867 31.7078 21.8279C31.7078 22.1692 31.9844 22.4458 32.3257 22.4458H33.479C33.427 23.6247 33.2261 24.7652 32.8961 25.8501C29.5108 26.7068 26.9983 29.7786 26.9983 33.4267C26.9983 33.47 26.9993 33.513 26.9999 33.5562C25.031 34.7956 22.7298 35.5529 20.2628 35.662V34.5089C20.2628 34.1676 19.9862 33.891 19.6449 33.891C19.3036 33.891 19.027 34.1676 19.027 34.5089V35.6616C15.6738 35.5136 12.6269 34.168 10.3042 32.0423L11.115 31.2317C11.3563 30.9904 11.3563 30.5992 11.1151 30.3579C10.8737 30.1167 10.4824 30.1166 10.2413 30.3578L9.43051 31.1685C7.20096 28.7324 5.82966 25.4991 5.79845 21.9516H6.7962C7.13755 21.9516 7.41408 21.6749 7.41408 21.3337C7.41408 20.9924 7.13755 20.7158 6.7962 20.7158H5.84135C6.09359 17.5578 7.40963 14.6953 9.43034 12.4874L10.2412 13.2982C10.362 13.4188 10.52 13.4791 10.6781 13.4791C10.8363 13.4791 10.9944 13.4188 11.1151 13.2981C11.3563 13.0568 11.3563 12.6656 11.115 12.4244L10.3042 11.6137C12.6266 9.48817 15.6736 8.14265 19.0269 7.99458V9.14716C19.0269 9.48842 19.3034 9.76503 19.6447 9.76503C19.9861 9.76503 20.2626 9.48842 20.2626 9.14716V7.99549C22.4936 8.0948 24.6712 8.72906 26.5954 9.84804C27.4557 10.3483 28.2577 10.941 28.9888 11.6101L28.1746 12.4244C27.9333 12.6657 27.9333 13.057 28.1747 13.2982C28.2954 13.4188 28.4534 13.4791 28.6115 13.4791C28.7697 13.4791 28.9278 13.4188 29.0485 13.2981L29.8623 12.4842C30.5016 13.1826 31.0715 13.9455 31.5574 14.763C31.7318 15.0564 32.1112 15.1528 32.4042 14.9785C32.6975 14.804 32.794 14.4249 32.6196 14.1317C31.3064 11.9223 29.438 10.0716 27.2165 8.77979C24.9266 7.44819 22.3084 6.74426 19.6447 6.74426C11.3275 6.74426 4.56089 13.5107 4.56089 21.8279C4.56089 30.145 11.3275 36.9115 19.6447 36.9115C22.3715 36.9115 24.9309 36.1833 27.1404 34.9124C27.3284 35.8851 27.6971 36.7939 28.2102 37.6026C27.7085 37.8748 27.1907 38.1254 26.6576 38.352C26.3436 38.4855 26.1972 38.8482 26.3306 39.1623C26.4639 39.4763 26.8266 39.6228 27.1409 39.4894C27.7678 39.223 28.3748 38.9254 28.9609 38.6C30.3937 40.2187 32.4855 41.2412 34.812 41.2412C36.3438 41.2412 37.8273 40.7978 39.102 39.9589C39.387 39.7713 39.466 39.3881 39.2785 39.1031C39.0909 38.818 38.7077 38.7391 38.4227 38.9267C37.3502 39.6323 36.1016 40.0054 34.812 40.0054C31.1848 40.0054 28.2338 37.0542 28.2338 33.4266C28.2338 29.799 31.1847 26.8478 34.812 26.8478C38.4393 26.8478 41.3904 29.799 41.3904 33.4266C41.3904 34.5813 41.0871 35.717 40.5134 36.7107C40.3427 37.0062 40.444 37.3841 40.7395 37.5547C41.0351 37.7253 41.4129 37.624 41.5835 37.3286C42.2655 36.1471 42.6261 34.7979 42.6261 33.4266C42.6262 30.3593 40.8496 27.6994 38.2715 26.421Z" fill="#D82B5D"/>
<path d="M39.1814 30.4504C38.8216 30.0994 38.347 29.9061 37.8448 29.9061C37.3251 29.9061 36.8391 30.1108 36.4761 30.4827L33.8906 33.1314L32.8467 32.0662C32.4839 31.6961 31.9987 31.4922 31.4805 31.4922C30.9767 31.4922 30.5011 31.6864 30.1414 32.0392C29.388 32.7775 29.3759 33.9911 30.1143 34.7445L32.2249 36.8981C32.6615 37.3436 33.2695 37.5992 33.893 37.5992H33.8945C33.8947 37.5992 33.8948 37.5992 33.8951 37.5992C34.5188 37.5986 35.1271 37.3419 35.564 36.8948L39.2143 33.1558C39.9509 32.4007 39.9361 31.1871 39.1814 30.4504ZM38.3297 32.2927L34.6798 36.0314C34.4738 36.2422 34.1874 36.3633 33.8938 36.3635H33.8929C33.5994 36.3635 33.313 36.2431 33.1074 36.0332L30.9967 33.8796C30.7353 33.6129 30.7396 33.1831 31.0063 32.9216C31.1337 32.7967 31.302 32.7279 31.4803 32.7279C31.6638 32.7279 31.8356 32.8001 31.964 32.9312L33.4501 34.4475C33.5663 34.5661 33.7253 34.6328 33.8913 34.6328C33.8915 34.6328 33.8917 34.6328 33.892 34.6328C34.0582 34.6327 34.2173 34.5656 34.3334 34.4466L37.3601 31.3458C37.4886 31.2142 37.6605 31.1418 37.8444 31.1418C38.0223 31.1418 38.1904 31.2102 38.3178 31.3346C38.5853 31.5957 38.5905 32.0254 38.3297 32.2927Z" fill="#D82B5D"/>
</g>
<defs>
<clipPath id="clip0_191_14558">
<rect width="42.1632" height="42.1632" fill="white" transform="translate(0.462891 0.862061)"/>
</clipPath>
</defs>
</svg>
