<svg width="43" height="43" viewBox="0 0 43 43" fill="none" xmlns="http://www.w3.org/2000/svg">
<g clip-path="url(#clip0_164_10473)">
<path d="M39.9473 4.17279H19.2329C18.8918 4.17279 18.6152 4.44924 18.6152 4.79042C18.6152 5.13159 18.8918 5.40804 19.2329 5.40804H39.9473C40.7419 5.40804 41.3884 6.05457 41.3884 6.84916V11.8725H33.6458C33.3047 11.8725 33.0282 12.149 33.0282 12.4901C33.0282 12.8313 33.3047 13.1078 33.6458 13.1078H41.3884V36.6598C41.3884 37.4544 40.7419 38.101 39.9473 38.101H30.9335C30.5924 38.101 30.3158 38.3774 30.3158 38.7186C30.3158 39.0598 30.5924 39.3362 30.9335 39.3362H39.9473C41.423 39.3362 42.6237 38.1356 42.6237 36.6598V6.84916C42.6237 5.37337 41.423 4.17279 39.9473 4.17279Z" fill="#D82B5D"/>
<path d="M28.0534 38.101H3.13731C2.34272 38.101 1.69619 37.4544 1.69619 36.6598V13.1078H30.771C31.1121 13.1078 31.3886 12.8313 31.3886 12.4901C31.3886 12.149 31.1121 11.8725 30.771 11.8725H1.69619V6.84916C1.69619 6.05457 2.34272 5.40804 3.13731 5.40804H16.3475C16.6886 5.40804 16.9651 5.13159 16.9651 4.79042C16.9651 4.44924 16.6886 4.17279 16.3475 4.17279H3.13731C1.6616 4.17279 0.460938 5.37337 0.460938 6.84916V36.6598C0.460938 38.1356 1.6616 39.3362 3.13731 39.3362H28.0534C28.3945 39.3362 28.6711 39.0598 28.6711 38.7186C28.6711 38.3774 28.3945 38.101 28.0534 38.101Z" fill="#D82B5D"/>
<path d="M3.93945 8.74322C3.93945 9.76486 4.77061 10.5961 5.79233 10.5961C6.81404 10.5961 7.6452 9.76486 7.6452 8.74322C7.6452 7.72159 6.81404 6.89035 5.79233 6.89035C4.77061 6.89035 3.93945 7.72159 3.93945 8.74322ZM6.40995 8.74322C6.40995 9.08382 6.13293 9.36085 5.79233 9.36085C5.45173 9.36085 5.1747 9.08382 5.1747 8.74322C5.1747 8.40263 5.45173 8.1256 5.79233 8.1256C6.13293 8.1256 6.40995 8.40263 6.40995 8.74322Z" fill="#D82B5D"/>
<path d="M8.88086 8.74322C8.88086 9.76486 9.71202 10.5961 10.7337 10.5961C11.7554 10.5961 12.5866 9.76486 12.5866 8.74322C12.5866 7.72159 11.7554 6.89035 10.7337 6.89035C9.71202 6.89035 8.88086 7.72159 8.88086 8.74322ZM11.3514 8.74322C11.3514 9.08382 11.0743 9.36085 10.7337 9.36085C10.3931 9.36085 10.1161 9.08382 10.1161 8.74322C10.1161 8.40263 10.3931 8.1256 10.7337 8.1256C11.0743 8.1256 11.3514 8.40263 11.3514 8.74322Z" fill="#D82B5D"/>
<path d="M13.8223 8.74322C13.8223 9.76486 14.6534 10.5961 15.6751 10.5961C16.6969 10.5961 17.528 9.76486 17.528 8.74322C17.528 7.72159 16.6969 6.89035 15.6751 6.89035C14.6534 6.89035 13.8223 7.72159 13.8223 8.74322ZM16.2928 8.74322C16.2928 9.08382 16.0157 9.36085 15.6751 9.36085C15.3345 9.36085 15.0575 9.08382 15.0575 8.74322C15.0575 8.40263 15.3345 8.1256 15.6751 8.1256C16.0157 8.1256 16.2928 8.40263 16.2928 8.74322Z" fill="#D82B5D"/>
<path d="M39.2481 8.74322C39.2481 7.72159 38.4169 6.89035 37.3952 6.89035H22.1605C21.1388 6.89035 20.3076 7.72159 20.3076 8.74322C20.3076 9.76486 21.1388 10.5961 22.1605 10.5961H37.3952C38.4169 10.5961 39.2481 9.76486 39.2481 8.74322ZM21.5429 8.74322C21.5429 8.40263 21.8199 8.1256 22.1605 8.1256H37.3952C37.7358 8.1256 38.0129 8.40263 38.0129 8.74322C38.0129 9.08382 37.7358 9.36085 37.3952 9.36085H22.1605C21.8199 9.36085 21.5429 9.08382 21.5429 8.74322Z" fill="#D82B5D"/>
<path d="M32.3098 18.5429C32.6509 18.5429 32.9274 18.2664 32.9274 17.9252C32.9274 17.5841 32.6509 17.3076 32.3098 17.3076C30.607 17.3076 29.2217 18.6929 29.2217 20.3957C29.2217 22.0986 30.607 23.4839 32.3098 23.4839C34.0126 23.4839 35.3979 22.0986 35.3979 20.3957C35.3979 20.0546 35.1214 19.7781 34.7803 19.7781C34.4392 19.7781 34.1627 20.0546 34.1627 20.3957C34.1627 21.4174 33.3315 22.2486 32.3098 22.2486C31.2881 22.2486 30.4569 21.4174 30.4569 20.3957C30.4569 19.3741 31.2881 18.5429 32.3098 18.5429Z" fill="#D82B5D"/>
<path d="M32.3096 14.8371C29.2445 14.8371 26.751 17.3307 26.751 20.3957C26.751 23.4608 29.2445 25.9543 32.3096 25.9543C35.3747 25.9543 37.8682 23.4608 37.8682 20.3957C37.8682 20.0545 37.5917 19.7781 37.2506 19.7781C36.9095 19.7781 36.633 20.0545 36.633 20.3957C36.633 22.7796 34.6935 24.7191 32.3096 24.7191C29.9256 24.7191 27.9862 22.7796 27.9862 20.3957C27.9862 18.0119 29.9256 16.0723 32.3096 16.0723C32.6507 16.0723 32.9272 15.7959 32.9272 15.4547C32.9272 15.1135 32.6507 14.8371 32.3096 14.8371Z" fill="#D82B5D"/>
<path d="M23.5803 27.1896H6.03976C5.92628 27.1896 5.83388 27.0973 5.83388 26.9837V24.3897C5.83388 24.0485 5.55735 23.7721 5.21626 23.7721C4.87516 23.7721 4.59863 24.0485 4.59863 24.3897V26.9837C4.59863 27.7783 5.24516 28.4249 6.03976 28.4249H23.5803C23.9214 28.4249 24.1979 28.1484 24.1979 27.8072C24.1979 27.4661 23.9214 27.1896 23.5803 27.1896Z" fill="#D82B5D"/>
<path d="M4.59863 21.5144C4.59863 21.8556 4.87516 22.1321 5.21626 22.1321C5.55735 22.1321 5.83388 21.8556 5.83388 21.5144V18.584C5.83388 18.2428 5.55735 17.9664 5.21626 17.9664C4.87516 17.9664 4.59863 18.2428 4.59863 18.584V21.5144Z" fill="#D82B5D"/>
<path d="M7.06934 20.6568C7.06934 20.998 7.34587 21.2744 7.68696 21.2744H9.18729C11.1448 21.2744 13.0582 21.8819 14.6549 22.9968C13.0582 24.1116 11.1448 24.7191 9.18729 24.7191H7.68696C7.34587 24.7191 7.06934 24.9956 7.06934 25.3367C7.06934 25.6779 7.34587 25.9544 7.68696 25.9544H9.18729C11.5271 25.9544 13.8115 25.1866 15.6749 23.7834C17.5383 25.1866 19.8227 25.9544 22.1625 25.9544H23.4982C23.8392 25.9544 24.1158 25.6779 24.1158 25.3367C24.1158 24.9956 23.8392 24.7191 23.4982 24.7191H22.1625C20.2051 24.7191 18.2917 24.1116 16.6949 22.9968C18.2917 21.8819 20.2051 21.2744 22.1625 21.2744H23.4982C23.8392 21.2744 24.1158 20.998 24.1158 20.6568C24.1158 20.3156 23.8392 20.0392 23.4982 20.0392H22.1625C19.8227 20.0392 17.5383 20.8069 15.6749 22.2101C13.8115 20.8069 11.5272 20.0392 9.18729 20.0392H7.68696C7.34587 20.0392 7.06934 20.3156 7.06934 20.6568Z" fill="#D82B5D"/>
<path d="M27.9867 27.1896H26.7514C26.4103 27.1896 26.1338 27.4661 26.1338 27.8072C26.1338 28.1484 26.4103 28.4249 26.7514 28.4249H27.9867C28.3278 28.4249 28.6043 28.1484 28.6043 27.8072C28.6043 27.4661 28.3278 27.1896 27.9867 27.1896Z" fill="#D82B5D"/>
<path d="M32.9271 28.4249C33.2682 28.4249 33.5447 28.1484 33.5447 27.8072C33.5447 27.4661 33.2682 27.1896 32.9271 27.1896H31.6918C31.3507 27.1896 31.0742 27.4661 31.0742 27.8072C31.0742 28.1484 31.3507 28.4249 31.6918 28.4249H32.9271Z" fill="#D82B5D"/>
<path d="M37.8685 27.1896H36.6333C36.2922 27.1896 36.0156 27.4661 36.0156 27.8072C36.0156 28.1484 36.2922 28.4249 36.6333 28.4249H37.8685C38.2096 28.4249 38.4861 28.1484 38.4861 27.8072C38.4861 27.4661 38.2096 27.1896 37.8685 27.1896Z" fill="#D82B5D"/>
<path d="M9.76606 16.7312H14.2751C14.6162 16.7312 14.8928 16.4547 14.8928 16.1135C14.8928 15.7724 14.6162 15.4959 14.2751 15.4959H9.76606C9.42497 15.4959 9.14844 15.7724 9.14844 16.1135C9.14844 16.4547 9.42497 16.7312 9.76606 16.7312Z" fill="#D82B5D"/>
<path d="M7.29518 15.4959H5.21626C4.87516 15.4959 4.59863 15.7724 4.59863 16.1135C4.59863 16.4547 4.87516 16.7312 5.21626 16.7312H7.29518C7.63628 16.7312 7.91281 16.4547 7.91281 16.1135C7.91281 15.7724 7.63628 15.4959 7.29518 15.4959Z" fill="#D82B5D"/>
<path d="M13.4519 30.8953C13.793 30.8953 14.0695 30.6189 14.0695 30.2777C14.0695 29.9365 13.793 29.6601 13.4519 29.6601H11.4448C11.1037 29.6601 10.8271 29.9365 10.8271 30.2777C10.8271 30.6189 11.1037 30.8953 11.4448 30.8953H13.4519Z" fill="#D82B5D"/>
<path d="M8.97364 30.8953C9.31473 30.8953 9.59126 30.6189 9.59126 30.2777C9.59126 29.9365 9.31473 29.6601 8.97364 29.6601H5.21626C4.87516 29.6601 4.59863 29.9365 4.59863 30.2777C4.59863 30.6189 4.87516 30.8953 5.21626 30.8953H8.97364Z" fill="#D82B5D"/>
<path d="M4.59863 34.807C4.59863 35.3746 5.06037 35.8364 5.62801 35.8364H23.1685C23.7362 35.8364 24.1979 35.3746 24.1979 34.807V33.16C24.1979 32.5924 23.7362 32.1306 23.1685 32.1306H5.62801C5.06037 32.1306 4.59863 32.5924 4.59863 33.16V34.807ZM22.9627 34.6011H17.1982V33.3659H22.9627V34.6011ZM5.83388 33.3659H15.9629V34.6011H5.83388V33.3659Z" fill="#D82B5D"/>
<path d="M26.7924 35.754H34.0085C34.3496 35.754 34.6261 35.4775 34.6261 35.1364C34.6261 34.7952 34.3496 34.5187 34.0085 34.5187H26.7924C26.4513 34.5187 26.1748 34.7952 26.1748 35.1364C26.1748 35.4775 26.4513 35.754 26.7924 35.754Z" fill="#D82B5D"/>
<path d="M38.4452 32.6659C38.4452 32.3247 38.1687 32.0482 37.8276 32.0482H32.269C31.9279 32.0482 31.6514 32.3247 31.6514 32.6659C31.6514 33.007 31.9279 33.2835 32.269 33.2835H37.8276C38.1687 33.2835 38.4452 33.007 38.4452 32.6659Z" fill="#D82B5D"/>
<path d="M26.7924 32.0482C26.4513 32.0482 26.1748 32.3247 26.1748 32.6659C26.1748 33.007 26.4513 33.2835 26.7924 33.2835H29.7982C30.1393 33.2835 30.4158 33.007 30.4158 32.6659C30.4158 32.3247 30.1393 32.0482 29.7982 32.0482H26.7924Z" fill="#D82B5D"/>
<path d="M26.1748 30.1954C26.1748 30.5366 26.4513 30.813 26.7924 30.813H31.7334C32.0745 30.813 32.3511 30.5366 32.3511 30.1954C32.3511 29.8542 32.0745 29.5778 31.7334 29.5778H26.7924C26.4513 29.5778 26.1748 29.8542 26.1748 30.1954Z" fill="#D82B5D"/>
</g>
<defs>
<clipPath id="clip0_164_10473">
<rect width="42.1632" height="42.1632" fill="white" transform="translate(0.460938 0.672913)"/>
</clipPath>
</defs>
</svg>
