<?xml version="1.0" encoding="UTF-8"?>
<svg width="414px" height="286px" viewBox="0 0 414 286" version="1.1" xmlns="http://www.w3.org/2000/svg" xmlns:xlink="http://www.w3.org/1999/xlink">
    <title>promotion</title>
    <g id="Page-1" stroke="none" stroke-width="1" fill="none" fill-rule="evenodd">
        <g id="promotion" transform="translate(0.376000, 0.811173)" fill-rule="nonzero">
            <path d="M297.644,79.5568268 L297.644,4.00082684 C297.644,2.19282684 296.428,0.604826844 294.68,0.136826844 C292.936,-0.331173156 291.088,0.428826844 290.18,1.99682684 C264.448,46.4568268 191.148,64.2248268 173.444,67.9288268 C171.76,63.3368268 167.384,60.0288268 162.212,60.0288268 L109.748,60.0288268 C103.132,60.0288268 97.748,65.4128268 97.748,72.0288268 L97.748,82.3568268 L90.984,82.3568268 C88.776,82.3568268 86.984,84.1448268 86.984,86.3568268 L86.984,128.276827 C86.984,130.488827 88.776,132.276827 90.984,132.276827 L97.748,132.276827 L97.748,138.540827 C97.748,145.156827 103.132,150.540827 109.748,150.540827 L122.344,150.540827 L122.344,151.664827 L109.14,154.448827 C95.936,155.952827 77.092,170.996827 72.224,175.044827 L63.812,175.044827 L63.812,167.340827 C63.812,165.128827 62.02,163.340827 59.812,163.340827 L4,163.340827 C1.792,163.340827 2.84217094e-14,165.128827 2.84217094e-14,167.340827 L2.84217094e-14,280.364827 C2.84217094e-14,282.576827 1.792,284.364827 4,284.364827 L59.816,284.364827 C62.024,284.364827 63.816,282.576827 63.816,280.364827 L63.816,275.552827 L158.132,275.552827 C166.296,275.552827 172.936,268.912827 172.936,260.748827 C172.936,257.380827 171.764,254.308827 169.86,251.820827 C174.824,249.040827 178.224,243.792827 178.224,237.712827 C178.224,233.652827 176.676,229.984827 174.208,227.132827 C178.964,224.296827 182.192,219.144827 182.192,213.212827 C182.192,209.048827 180.568,205.284827 177.98,202.408827 C182.5,199.516827 185.524,194.484827 185.524,188.728827 C185.524,179.776827 178.232,172.492827 169.272,172.492827 L156.688,172.492827 L156.688,150.548827 L162.216,150.548827 C167.388,150.548827 171.768,147.240827 173.448,142.644827 C191.16,146.352827 264.452,164.124827 290.184,208.564827 C290.912,209.820827 292.244,210.560827 293.644,210.560827 C293.988,210.560827 294.336,210.516827 294.68,210.424827 C296.428,209.956827 297.644,208.368827 297.644,206.560827 L297.644,135.072827 C311.232,133.124827 321.724,121.440827 321.724,107.320827 C321.72,93.1968268 311.232,81.5048268 297.644,79.5568268 L297.644,79.5568268 Z M94.984,124.280827 L94.984,90.3608268 L97.748,90.3608268 L97.748,124.280827 L94.984,124.280827 Z M55.816,276.376827 L8,276.376827 L8,171.352827 L55.816,171.352827 L55.816,276.376827 Z M177.524,188.736827 C177.524,193.292827 173.82,196.992827 169.272,196.992827 C168.88,196.992827 168.524,197.108827 168.168,197.216827 C167.44,197.116827 166.716,196.992827 165.96,196.992827 C163.752,196.992827 161.96,198.780827 161.96,200.992827 C161.96,203.204827 163.752,204.992827 165.96,204.992827 C170.5,204.992827 174.196,208.684827 174.196,213.220827 C174.196,217.776827 170.504,221.476827 165.96,221.476827 C165.488,221.476827 165.052,221.592827 164.632,221.740827 C163.768,221.600827 162.892,221.476827 161.988,221.476827 C159.78,221.476827 157.988,223.264827 157.988,225.476827 C157.988,227.688827 159.78,229.476827 161.988,229.476827 C166.532,229.476827 170.228,233.176827 170.228,237.720827 C170.228,242.260827 166.532,245.956827 161.988,245.956827 L158.132,245.956827 C155.924,245.956827 154.132,247.744827 154.132,249.956827 C154.132,252.168827 155.924,253.956827 158.132,253.956827 C161.884,253.956827 164.936,257.008827 164.936,260.760827 C164.936,264.512827 161.884,267.564827 158.132,267.564827 L63.816,267.564827 L63.816,183.056827 L73.692,183.056827 C74.652,183.056827 75.58,182.708827 76.308,182.084827 C82.176,177.008827 99.68,163.592827 110.42,162.344827 L122.348,159.840827 L122.348,172.500827 L109.596,172.500827 C107.388,172.500827 105.596,174.288827 105.596,176.500827 C105.596,178.712827 107.388,180.500827 109.596,180.500827 L126.348,180.500827 L152.688,180.500827 L169.272,180.500827 C173.82,180.500827 177.524,184.196827 177.524,188.736827 Z M148.688,172.500827 L130.348,172.500827 L130.348,150.548827 L148.688,150.548827 L148.688,172.500827 Z M166.212,138.548827 C166.212,140.756827 164.416,142.548827 162.212,142.548827 L152.684,142.548827 L126.344,142.548827 L109.748,142.548827 C107.544,142.548827 105.748,140.756827 105.748,138.548827 L105.748,128.284827 L105.748,86.3648268 L105.748,72.0368268 C105.748,69.8288268 107.544,68.0368268 109.748,68.0368268 L162.212,68.0368268 C164.416,68.0368268 166.212,69.8288268 166.212,72.0368268 L166.212,138.548827 Z M289.644,193.700827 C257.18,153.204827 190.088,137.776827 174.216,134.616827 L174.216,75.9568268 C190.088,72.7968268 257.184,57.3728268 289.644,16.8648268 L289.644,103.268827 L289.644,107.324827 L289.644,193.700827 Z M297.644,126.984827 L297.644,107.320827 L297.644,103.268827 L297.644,87.6448268 C306.804,89.5048268 313.724,97.6208268 313.724,107.324827 C313.72,117.016827 306.804,125.124827 297.644,126.984827 L297.644,126.984827 Z" id="Shape" fill="#163656"></path>
            <path d="M409.248,103.320827 L355.852,103.320827 C353.644,103.320827 351.852,105.108827 351.852,107.320827 C351.852,109.532827 353.644,111.320827 355.852,111.320827 L409.248,111.320827 C411.456,111.320827 413.248,109.532827 413.248,107.320827 C413.248,105.108827 411.456,103.320827 409.248,103.320827 Z" id="Path" fill="#D82B5D"></path>
            <path d="M337.632,67.3208268 C338.656,67.3208268 339.68,66.9288268 340.46,66.1488268 L378.216,28.3968268 C379.78,26.8328268 379.78,24.3048268 378.216,22.7408268 C376.652,21.1768268 374.124,21.1768268 372.56,22.7408268 L334.804,60.4928268 C333.24,62.0568268 333.24,64.5848268 334.804,66.1488268 C335.584,66.9328268 336.608,67.3208268 337.632,67.3208268 L337.632,67.3208268 Z" id="Path" fill="#D82B5D"></path>
            <path d="M340.46,148.484827 C338.896,146.920827 336.368,146.920827 334.804,148.484827 C333.24,150.048827 333.24,152.576827 334.804,154.140827 L372.56,191.896827 C373.34,192.676827 374.364,193.068827 375.388,193.068827 C376.412,193.068827 377.436,192.676827 378.216,191.896827 C379.78,190.332827 379.78,187.804827 378.216,186.240827 L340.46,148.484827 Z" id="Path" fill="#D82B5D"></path>
            <path d="M126.348,79.2368268 L114.372,79.2368268 C112.164,79.2368268 110.372,81.0248268 110.372,83.2368268 C110.372,85.4488268 112.164,87.2368268 114.372,87.2368268 L126.348,87.2368268 C128.556,87.2368268 130.348,85.4488268 130.348,83.2368268 C130.348,81.0248268 128.556,79.2368268 126.348,79.2368268 Z" id="Path" fill="#79C2C4"></path>
            <path d="M126.348,96.7208268 L114.372,96.7208268 C112.164,96.7208268 110.372,98.5088268 110.372,100.720827 C110.372,102.932827 112.164,104.720827 114.372,104.720827 L126.348,104.720827 C128.556,104.720827 130.348,102.932827 130.348,100.720827 C130.348,98.5088268 128.556,96.7208268 126.348,96.7208268 Z" id="Path" fill="#79C2C4"></path>
        </g>
    </g>
</svg>