<svg width="184" height="55" viewBox="0 0 184 55" fill="none" xmlns="http://www.w3.org/2000/svg">
<g clip-path="url(#clip0_191_14263)">
<path d="M40.6406 15.5191C40.6406 6.68197 46.8457 0.260742 55.7191 0.260742C61.0049 0.260742 65.231 2.5495 67.8037 6.256L63.0286 9.7845C62.1795 8.65481 61.0754 7.7399 59.8057 7.11369C58.5359 6.48748 57.136 6.16753 55.7191 6.17971C50.2482 6.17971 46.6031 10.1151 46.6031 15.5191C46.6031 20.9231 50.2482 24.8585 55.7191 24.8585C57.144 24.8261 58.5428 24.4709 59.8093 23.8199C61.0758 23.1689 62.1767 22.2391 63.0286 21.1011L67.8037 24.7949C65.2501 28.5014 61.0049 30.7902 55.7191 30.7902C46.8457 30.7647 40.6406 24.3562 40.6406 15.5191Z" fill="#163656"/>
<path d="M69.457 0.635742H75.2471L75.2024 30.3895H69.457V0.635742Z" fill="#163656"/>
<path d="M78.0035 3.01984C78.0895 2.24167 78.4608 1.52246 79.0463 1.00004C79.6317 0.477612 80.3902 0.188721 81.1763 0.188721C81.9624 0.188721 82.7208 0.477612 83.3063 1.00004C83.8917 1.52246 84.263 2.24167 84.349 3.01984C84.3981 3.46395 84.3526 3.91336 84.2155 4.33878C84.0785 4.7642 83.8529 5.15607 83.5535 5.48882C83.2541 5.82158 82.8877 6.08774 82.4781 6.26996C82.0685 6.45218 81.6249 6.54637 81.1763 6.54637C80.7277 6.54637 80.2841 6.45218 79.8745 6.26996C79.4648 6.08774 79.0984 5.82158 78.799 5.48882C78.4997 5.15607 78.2741 4.7642 78.137 4.33878C77.9999 3.91336 77.9545 3.46395 78.0035 3.01984ZM78.278 9.33934H84.0745L84.0298 30.3959H78.2844L78.278 9.33934Z" fill="#163656"/>
<path d="M87.1074 9.33944H92.8528V11.3548C93.6235 10.5757 94.5491 9.96569 95.5705 9.56387C96.5918 9.16205 97.6862 8.97733 98.7834 9.02155C102.614 9.02155 107.012 11.0814 107.012 17.5344V30.396H101.267V18.4372C101.267 14.7244 98.6429 13.8597 97.0342 13.8597C95.4255 13.8597 92.8528 14.7244 92.8528 18.4372V30.396H87.1074V9.33944Z" fill="#163656"/>
<path d="M109.305 15.5191C109.305 6.68197 115.51 0.260742 124.383 0.260742C133.257 0.260742 139.372 6.66925 139.372 15.5191C139.372 24.3689 133.257 30.7774 124.383 30.7774C115.51 30.7774 109.305 24.3562 109.305 15.5191ZM133.397 15.5191C133.397 10.1151 129.854 6.17971 124.383 6.17971C118.912 6.17971 115.235 10.1151 115.235 15.5191C115.235 20.9231 118.912 24.8585 124.383 24.8585C129.854 24.8585 133.423 20.9231 133.423 15.5191H133.397Z" fill="#163656"/>
<path d="M141.434 9.33944H147.179V11.3548C147.95 10.5757 148.875 9.96569 149.897 9.56387C150.918 9.16205 152.012 8.97733 153.11 9.02155C156.94 9.02155 161.338 11.0814 161.338 17.5344V30.396H155.593V18.4372C155.593 14.7244 152.975 13.8597 151.367 13.8597C149.758 13.8597 147.179 14.7244 147.179 18.4372V30.396H141.434V9.33944Z" fill="#163656"/>
<path d="M163.311 19.8675C163.311 13.5989 167.454 8.92603 173.837 8.92603C180.221 8.92603 184 13.5989 184 19.8675V21.4252H168.833C169.382 24.2607 171.45 25.9582 174.067 25.9582C176.876 25.9582 178.344 24.6866 179.078 23.7139L182.985 26.5494C181.147 29.2069 177.929 30.8535 174.048 30.8535C167.588 30.8535 163.311 26.1425 163.311 19.8675ZM178.632 17.8077C178.127 15.3345 176.563 13.459 173.85 13.459C171.137 13.459 169.484 15.1502 168.935 17.8077H178.632Z" fill="#163656"/>
<path d="M34.1158 30.3704H34.7031L34.7031 0.667444H34.1158L34.1158 30.3704Z" fill="#E1E2E2"/>
<path d="M3.32053 48.9984C2.64622 49.0316 2.01052 49.3216 1.54504 49.8086C1.07956 50.2956 0.819945 50.9422 0.819945 51.6146C0.819945 52.287 1.07956 52.9336 1.54504 53.4206C2.01052 53.9076 2.64622 54.1977 3.32053 54.2308C3.72296 54.2369 4.12097 54.1466 4.48096 53.9673C4.84095 53.788 5.15235 53.5252 5.38888 53.2008L6.02726 53.6713C5.72113 54.0979 5.31379 54.4425 4.84152 54.6744C4.36926 54.9062 3.84674 55.0181 3.32053 55.0001C2.41811 55.0001 1.55266 54.643 0.914556 54.0075C0.276452 53.3721 -0.0820313 52.5101 -0.0820312 51.6114C-0.0820313 50.7127 0.276452 49.8508 0.914556 49.2153C1.55266 48.5798 2.41811 48.2228 3.32053 48.2228C3.84752 48.2088 4.36964 48.3265 4.83915 48.5653C5.30865 48.8041 5.71055 49.1563 6.00811 49.5897L5.36973 50.0411C5.13721 49.7163 4.82964 49.452 4.47297 49.2706C4.11631 49.0891 3.72104 48.9957 3.32053 48.9984Z" fill="#163656"/>
<path d="M8.82302 51.6113C8.7991 51.1681 8.86751 50.7248 9.02396 50.3093C9.18041 49.8937 9.42151 49.5149 9.7321 49.1966C10.0427 48.8783 10.416 48.6275 10.8287 48.4599C11.2413 48.2923 11.6843 48.2115 12.1298 48.2227C13.0322 48.2227 13.8977 48.5797 14.5358 49.2152C15.1739 49.8507 15.5324 50.7126 15.5324 51.6113C15.5324 52.51 15.1739 53.3719 14.5358 54.0074C13.8977 54.6429 13.0322 54.9999 12.1298 54.9999C11.6843 55.0111 11.2413 54.9303 10.8287 54.7627C10.416 54.5951 10.0427 54.3443 9.7321 54.026C9.42151 53.7078 9.18041 53.3289 9.02396 52.9134C8.86751 52.4978 8.7991 52.0545 8.82302 51.6113ZM14.6897 51.6113C14.7123 51.2683 14.6623 50.9244 14.543 50.6018C14.4236 50.2793 14.2375 49.9853 13.9968 49.739C13.756 49.4926 13.466 49.2994 13.1455 49.1718C12.825 49.0442 12.4811 48.9851 12.1362 48.9983C11.4619 49.0314 10.8262 49.3215 10.3607 49.8085C9.89523 50.2955 9.63562 50.9421 9.63562 51.6145C9.63562 52.2869 9.89523 52.9335 10.3607 53.4205C10.8262 53.9075 11.4619 54.1976 12.1362 54.2307C12.4812 54.243 12.8249 54.1831 13.1451 54.0547C13.4653 53.9263 13.7549 53.7324 13.995 53.4855C14.2352 53.2385 14.4205 52.9441 14.5391 52.6212C14.6577 52.2984 14.7068 51.9543 14.6833 51.6113H14.6897Z" fill="#163656"/>
<path d="M23.7423 48.3181V54.9237H22.9827L19.4077 49.6214V54.9237H18.6289V48.3181H19.3758L22.9827 53.6077V48.3181H23.7423Z" fill="#163656"/>
<path d="M32.1681 48.3181V54.9237H31.4084L27.8335 49.6214V54.9237H27.0547V48.3181H27.8016L31.3893 53.6204V48.3181H32.1681Z" fill="#163656"/>
<path d="M36.2485 49.0175V51.2681H39.5808V51.9801H36.2485V54.2117H39.7851V54.9237H35.4824V48.3181H39.7851V49.0175H36.2485Z" fill="#163656"/>
<path d="M46.0656 48.9985C45.6165 48.9928 45.1734 49.1018 44.7786 49.3149C44.3838 49.5281 44.0504 49.8385 43.8101 50.2163C43.5699 50.5942 43.4308 51.0271 43.4061 51.4737C43.3814 51.9203 43.472 52.3657 43.6692 52.7676C43.8664 53.1695 44.1636 53.5143 44.5325 53.7694C44.9015 54.0244 45.3298 54.1811 45.7768 54.2246C46.2238 54.268 46.6745 54.1967 47.086 54.0175C47.4975 53.8383 47.8561 53.5572 48.1275 53.2009L48.7659 53.6713C48.4616 54.0952 48.0573 54.4381 47.5887 54.6698C47.12 54.9015 46.6014 55.0149 46.0783 55.0001C45.1759 55.0001 44.3105 54.6431 43.6724 54.0076C43.0343 53.3721 42.6758 52.5102 42.6758 51.6115C42.6758 50.7127 43.0343 49.8508 43.6724 49.2153C44.3105 48.5798 45.1759 48.2228 46.0783 48.2228C46.6026 48.2143 47.1209 48.3346 47.5875 48.573C48.054 48.8114 48.4543 49.1606 48.7531 49.5897L48.1148 50.0411C47.8838 49.7148 47.5765 49.4493 47.2195 49.2677C46.8625 49.086 46.4665 48.9936 46.0656 48.9985Z" fill="#163656"/>
<path d="M56.6182 49.0175H54.4541V54.9237H53.6881V49.0175H51.5176V48.3181H56.6246L56.6182 49.0175Z" fill="#163656"/>
<path d="M67.4648 54.9237V48.3181H68.2309V54.9237H67.4648Z" fill="#163656"/>
<path d="M76.6695 48.3181V54.9237H75.9099L72.3349 49.6214V54.9237H71.5625V48.3181H72.303L75.8907 53.6204V48.3181H76.6695Z" fill="#163656"/>
<path d="M80.7563 49.0365V51.3507H84.1078V52.0818H80.7563V54.9237H79.9902V48.3181H84.2993V49.0492L80.7563 49.0365Z" fill="#163656"/>
<path d="M87.1336 51.6113C87.1499 50.9614 87.3582 50.3308 87.7325 49.7983C88.1067 49.2657 88.6303 48.8549 89.2378 48.6171C89.8452 48.3793 90.5096 48.3251 91.1478 48.4614C91.786 48.5976 92.3697 48.9182 92.826 49.383C93.2822 49.8478 93.5907 50.4363 93.713 51.0748C93.8352 51.7134 93.7657 52.3736 93.5131 52.973C93.2606 53.5724 92.8363 54.0844 92.2931 54.4449C91.75 54.8054 91.1122 54.9984 90.4595 54.9999C90.0124 55.0137 89.5673 54.935 89.1524 54.7686C88.7375 54.6021 88.3618 54.3517 88.0491 54.0332C87.7365 53.7146 87.4936 53.3348 87.336 52.9179C87.1784 52.501 87.1095 52.0561 87.1336 51.6113ZM93.0003 51.6113C92.9852 51.1118 92.8228 50.6278 92.5332 50.2198C92.2436 49.8118 91.8398 49.4977 91.372 49.3169C90.9043 49.136 90.3935 49.0964 89.9033 49.203C89.4131 49.3096 88.9653 49.5576 88.6158 49.9161C88.2663 50.2746 88.0306 50.7277 87.9382 51.2188C87.8457 51.7099 87.9005 52.2173 88.0958 52.6775C88.2912 53.1378 88.6183 53.5305 89.0364 53.8068C89.4545 54.083 89.945 54.2304 90.4468 54.2306C90.7922 54.2439 91.1367 54.1846 91.4577 54.0567C91.7786 53.9287 92.069 53.7349 92.3098 53.4878C92.5507 53.2408 92.7366 52.946 92.8556 52.6227C92.9745 52.2994 93.0238 51.9548 93.0003 51.6113Z" fill="#163656"/>
<path d="M101.121 54.9237L99.3334 52.3361H97.7119V54.9237H96.9395V48.3181H100.01C100.496 48.3643 100.948 48.5824 101.286 48.9329C101.623 49.2833 101.824 49.7428 101.85 50.2277C101.876 50.7127 101.727 51.1909 101.429 51.5755C101.131 51.9601 100.705 52.2255 100.227 52.3234L102.027 54.9237H101.121ZM97.7119 51.5923H99.8951C100.234 51.5923 100.559 51.4583 100.798 51.2199C101.037 50.9814 101.172 50.658 101.172 50.3208C101.172 49.9835 101.037 49.6601 100.798 49.4217C100.559 49.1832 100.234 49.0492 99.8951 49.0492H97.7119V51.5923Z" fill="#163656"/>
<path d="M111.463 54.9237H110.696V49.7804L108.571 54.1099H108.034L105.909 49.7804V54.9237H105.143V48.3181H105.972L108.315 52.9592L110.652 48.3181H111.475L111.463 54.9237Z" fill="#163656"/>
<path d="M60.8125 51.6115C60.8125 51.4209 60.8885 51.2382 61.0238 51.1035C61.1591 50.9688 61.3425 50.8931 61.5339 50.8931C61.7252 50.8931 61.9087 50.9688 62.044 51.1035C62.1792 51.2382 62.2552 51.4209 62.2552 51.6115C62.2552 51.802 62.1792 51.9847 62.044 52.1195C61.9087 52.2542 61.7252 52.3299 61.5339 52.3299C61.3425 52.3299 61.1591 52.2542 61.0238 52.1195C60.8885 51.9847 60.8125 51.802 60.8125 51.6115Z" fill="#79C2C4"/>
<path d="M115.861 51.6114C115.877 51.4333 115.96 51.2679 116.093 51.1475C116.226 51.0272 116.399 50.9604 116.579 50.9604C116.758 50.9604 116.932 51.0272 117.064 51.1475C117.197 51.2679 117.28 51.4333 117.297 51.6114C117.306 51.7109 117.295 51.8114 117.263 51.9063C117.231 52.0012 117.18 52.0884 117.112 52.1624C117.045 52.2364 116.962 52.2955 116.87 52.3359C116.779 52.3764 116.679 52.3973 116.579 52.3973C116.478 52.3973 116.379 52.3764 116.287 52.3359C116.195 52.2955 116.113 52.2364 116.045 52.1624C115.978 52.0884 115.926 52.0012 115.895 51.9063C115.863 51.8114 115.851 51.7109 115.861 51.6114Z" fill="#79C2C4"/>
<path d="M123.272 49.0175V51.2681H126.598V51.9801H123.272V54.2117H126.809V54.9237H122.506V48.3181H126.809V49.0175H123.272Z" fill="#163656"/>
<path d="M136.392 54.9237H135.625V49.7804L133.5 54.1099H132.97L130.87 49.7804V54.9237H130.104V48.3181H130.87L133.206 52.9592L135.549 48.3181H136.366L136.392 54.9237Z" fill="#163656"/>
<path d="M144.612 50.3208C144.627 50.5802 144.588 50.8399 144.499 51.0839C144.409 51.3279 144.271 51.5511 144.091 51.7399C143.912 51.9286 143.696 52.0788 143.456 52.1814C143.216 52.2839 142.958 52.3366 142.697 52.3362H140.469V54.9237H139.703V48.3181H142.697C142.957 48.3178 143.214 48.3701 143.453 48.4719C143.692 48.5736 143.907 48.7227 144.086 48.91C144.265 49.0974 144.405 49.319 144.495 49.5616C144.585 49.8041 144.625 50.0624 144.612 50.3208ZM143.833 50.3208C143.841 50.1555 143.815 49.9903 143.757 49.8355C143.698 49.6806 143.608 49.5393 143.493 49.4203C143.378 49.3012 143.239 49.2069 143.086 49.1431C142.932 49.0793 142.768 49.0473 142.601 49.0492H140.482V51.5923H142.601C142.767 51.5933 142.932 51.5608 143.085 51.4967C143.237 51.4325 143.376 51.3382 143.491 51.2193C143.606 51.1004 143.696 50.9595 143.755 50.805C143.814 50.6506 143.84 50.4858 143.833 50.3208Z" fill="#163656"/>
<path d="M147.525 51.6113C147.541 50.9612 147.75 50.3303 148.124 49.7976C148.499 49.2649 149.023 48.8541 149.63 48.6165C150.238 48.3789 150.903 48.3251 151.541 48.4619C152.18 48.5986 152.763 48.9198 153.219 49.3853C153.675 49.8507 153.983 50.4398 154.105 51.0787C154.226 51.7177 154.156 52.3781 153.902 52.9774C153.649 53.5767 153.224 54.0882 152.68 54.448C152.136 54.8077 151.497 54.9997 150.844 54.9999C150.396 55.0188 149.949 54.9434 149.532 54.7786C149.115 54.6139 148.738 54.3635 148.425 54.0438C148.112 53.724 147.87 53.3422 147.714 52.923C147.559 52.5039 147.495 52.0569 147.525 51.6113ZM153.385 51.6113C153.37 51.1118 153.208 50.6279 152.918 50.2198C152.628 49.8118 152.225 49.4977 151.757 49.3169C151.289 49.136 150.778 49.0964 150.288 49.203C149.798 49.3096 149.35 49.5576 149.001 49.9161C148.651 50.2746 148.415 50.7277 148.323 51.2188C148.23 51.7099 148.285 52.2173 148.481 52.6776C148.676 53.1378 149.003 53.5306 149.421 53.8068C149.839 54.083 150.33 54.2304 150.832 54.2306C151.177 54.2439 151.521 54.1846 151.842 54.0567C152.163 53.9287 152.454 53.7349 152.695 53.4878C152.935 53.2408 153.121 52.946 153.24 52.6227C153.359 52.2994 153.409 51.9548 153.385 51.6113Z" fill="#163656"/>
<path d="M165.87 48.3181L163.655 54.9364H163.017L161.344 49.9202L159.653 54.9364H159.014L156.773 48.3181H157.591L159.321 53.5123L161.057 48.3181H161.631L163.349 53.4042L165.04 48.3181H165.87Z" fill="#163656"/>
<path d="M169.555 49.0175V51.2681H172.875V51.9801H169.555V54.2117H173.092V54.9237H168.789V48.3181H173.092V49.0175H169.555Z" fill="#163656"/>
<path d="M180.535 54.9237L178.747 52.3361H177.12V54.9237H176.354V48.3181H179.424C179.919 48.3528 180.384 48.5661 180.732 48.9179C181.08 49.2698 181.287 49.7359 181.314 50.229C181.342 50.7221 181.188 51.2083 180.881 51.5962C180.574 51.9841 180.135 52.2472 179.648 52.3361L181.448 54.9364L180.535 54.9237ZM177.12 51.5923H179.309C179.648 51.5923 179.973 51.4583 180.212 51.2199C180.451 50.9814 180.586 50.658 180.586 50.3208C180.586 49.9835 180.451 49.6601 180.212 49.4217C179.973 49.1832 179.648 49.0492 179.309 49.0492H177.12V51.5923Z" fill="#163656"/>
<path d="M182.015 39.678H0.371094V40.3201H182.015V39.678Z" fill="#E1E2E2"/>
<path d="M17.8762 2.11084C15.8589 2.11067 13.8772 2.63936 12.1302 3.64377C10.3832 4.64818 8.93244 6.09291 7.92383 7.83272C8.88096 7.4774 9.88139 7.25077 10.8987 7.15881C16.7271 0.871099 27.4008 4.95271 27.4518 13.5737C27.4555 15.8355 26.6469 18.0241 25.1721 19.7443C23.6973 21.4644 21.6535 22.6026 19.4098 22.9534C17.1661 23.3042 14.8704 22.8444 12.9373 21.6571C11.0042 20.4698 9.56112 18.6333 8.86863 16.4791C8.40935 17.1764 8.19473 18.0055 8.25824 18.837C8.32176 19.6685 8.65984 20.4556 9.21974 21.0757H9.18782C10.4508 22.5181 12.0569 23.6221 13.859 24.2865C15.6612 24.951 17.6019 25.1547 19.5036 24.879C21.4052 24.6033 23.2071 23.8571 24.7442 22.7086C26.2814 21.56 27.5048 20.0459 28.3025 18.3048C29.1002 16.5636 29.4467 14.651 29.3102 12.742C29.1738 10.833 28.5588 8.98859 27.5215 7.37752C26.4842 5.76644 25.0578 4.44018 23.3727 3.52008C21.6877 2.59999 19.7978 2.11547 17.8762 2.11084Z" fill="#79C2C4"/>
<path d="M17.8746 17.331C16.5213 17.331 15.5126 17.0513 14.8423 16.1294C14.1656 15.3899 13.2424 14.92 12.2441 14.807C12.4926 15.9166 13.0674 16.9273 13.895 17.7102C14.7227 18.4931 15.7658 19.0128 16.8912 19.2028C18.0166 19.3929 19.1734 19.2448 20.214 18.7774C21.2545 18.31 22.1317 17.5445 22.7336 16.5785C23.3355 15.6126 23.6348 14.49 23.5934 13.3539C23.552 12.2178 23.1717 11.1198 22.5011 10.1998C21.8304 9.27989 20.8998 8.57975 19.828 8.18873C18.7561 7.7977 17.5916 7.73352 16.483 8.00436C18.1489 8.71422 19.6247 9.80292 20.792 11.1832C21.2449 11.7341 21.5316 12.4016 21.6187 13.1083C21.7059 13.815 21.5901 14.5318 21.2846 15.1755C20.9791 15.8192 20.4966 16.3634 19.893 16.745C19.2894 17.1265 18.5895 17.3297 17.8746 17.331Z" fill="#79C2C4"/>
<path d="M19.3887 9.76538L19.4275 9.79768L19.3887 9.76538Z" fill="#D82B5D"/>
<path d="M17.4277 8.44287L17.5171 8.49373L17.4277 8.44287Z" fill="#D82B5D"/>
<path d="M17.1289 8.26489L17.2183 8.3094L17.1289 8.26489Z" fill="#D82B5D"/>
<path d="M18.584 9.15503L18.6358 9.19379L18.584 9.15503Z" fill="#D82B5D"/>
<path d="M19.1523 9.53638C19.1646 9.55064 19.1802 9.56172 19.1977 9.56868C19.1802 9.56172 19.1646 9.55064 19.1523 9.53638Z" fill="#D82B5D"/>
<path d="M19.8926 10.2168C19.8926 10.2168 19.8926 10.2168 19.925 10.2491C19.9573 10.2814 19.9055 10.2233 19.8926 10.2168Z" fill="#D82B5D"/>
<path d="M18.0156 8.78003L18.0858 8.82453L18.0156 8.78003Z" fill="#D82B5D"/>
<path d="M17.7285 8.60815L17.8051 8.65266L17.7285 8.60815Z" fill="#D82B5D"/>
<path d="M18.3027 8.96436L18.3666 9.0025L18.3027 8.96436Z" fill="#D82B5D"/>
<path d="M20.5957 10.9351L20.6281 10.9738L20.5957 10.9351Z" fill="#D82B5D"/>
<path d="M20.3652 10.6873L20.3976 10.726L20.3652 10.6873Z" fill="#D82B5D"/>
<path d="M17.8047 8.65283L18.0154 8.77999L17.8047 8.65283Z" fill="#D82B5D"/>
<path d="M16.8926 8.17603L17.1288 8.29046L16.8926 8.17603Z" fill="#D82B5D"/>
<path d="M17.2363 8.33496L17.447 8.44304L17.2363 8.33496Z" fill="#D82B5D"/>
<path d="M16.5098 8.00439L16.8226 8.14426L16.5098 8.00439Z" fill="#D82B5D"/>
<path d="M17.5176 8.4939L17.7282 8.60834L17.5176 8.4939Z" fill="#D82B5D"/>
<path d="M20.168 10.4836L20.3659 10.6871L20.168 10.4836Z" fill="#D82B5D"/>
<path d="M19.9238 10.2485L20.1345 10.452L19.9238 10.2485Z" fill="#D82B5D"/>
<path d="M20.4297 10.7253L20.6276 10.9351L20.4297 10.7253Z" fill="#D82B5D"/>
<path d="M20.8057 11.1768L20.627 10.9734L20.8185 11.1959L20.8057 11.1768Z" fill="#D82B5D"/>
<path d="M19.6758 10.0195L19.8928 10.2166L19.6758 10.0195Z" fill="#D82B5D"/>
<path d="M18.0859 8.82446L18.303 8.96433L18.0859 8.82446Z" fill="#D82B5D"/>
<path d="M19.4277 9.79712L19.6448 9.98785L19.4277 9.79712Z" fill="#D82B5D"/>
<path d="M18.3672 9.00244L18.5842 9.15502L18.3672 9.00244Z" fill="#D82B5D"/>
<path d="M18.6348 9.19312C18.7114 9.24398 18.788 9.29484 18.8582 9.35206C18.788 9.29484 18.7114 9.24398 18.6348 9.19312Z" fill="#D82B5D"/>
<path d="M18.9043 9.38379L19.1533 9.53637L18.9043 9.38379Z" fill="#D82B5D"/>
<path d="M19.1523 9.5874L19.3694 9.76542L19.1523 9.5874Z" fill="#D82B5D"/>
<path d="M18.9681 24.992C18.0521 25.9768 16.9365 26.7566 15.6953 27.2798C14.454 27.803 13.1153 28.0577 11.7677 28.027C10.4202 27.9964 9.09457 27.681 7.8786 27.1018C6.66262 26.5226 5.58403 25.6929 4.71421 24.6674C3.8444 23.642 3.20319 22.4442 2.83302 21.1535C2.46286 19.8627 2.3722 18.5084 2.56702 17.1801C2.76185 15.8519 3.23772 14.5799 3.96315 13.4486C4.68857 12.3172 5.64701 11.3522 6.77501 10.6174C7.83646 9.92357 9.02695 9.44903 10.2759 9.22188C11.5249 8.99473 12.807 9.01959 14.0462 9.29497C14.8596 9.48626 15.6449 9.78114 16.3826 10.1723C18.6008 11.3164 20.2823 13.2785 21.0683 15.6399C21.5147 14.9718 21.7334 14.1783 21.692 13.3769C21.6507 12.5754 21.3514 11.8085 20.8385 11.1895L20.647 10.967L20.6151 10.9289L20.4299 10.7254L20.398 10.6873L20.2001 10.4839H20.1682L19.9575 10.2804C19.9575 10.2804 19.9575 10.2804 19.9256 10.2486L19.7086 10.0515H19.6767L19.4596 9.8608L19.4213 9.82901L19.1532 9.58742V9.53656L18.9298 9.3649C18.915 9.36199 18.8998 9.36199 18.8851 9.3649C18.8148 9.30769 18.7382 9.25682 18.6616 9.20596L18.6106 9.16782L18.3935 9.01523L18.3297 8.97709L18.1126 8.83722L18.0424 8.79272L17.8317 8.66556L17.7551 8.62106L17.5445 8.50662L17.4551 8.45576L17.238 8.33497L17.1295 8.26503L16.8933 8.15059H16.8231L16.5103 8.01073C15.0818 7.4023 13.5442 7.08869 11.9906 7.08887C11.6267 7.08887 11.2756 7.08887 10.9245 7.13973C8.96557 7.32693 7.08776 8.01203 5.47099 9.12937C3.85423 10.2467 2.55269 11.7588 1.6911 13.5209C0.829513 15.2829 0.436749 17.2358 0.550447 19.1923C0.664144 21.1489 1.28049 23.0436 2.34043 24.6949C3.40037 26.3462 4.86837 27.6987 6.60377 28.6228C8.33916 29.547 10.2838 30.0117 12.2513 29.9727C14.2188 29.9336 16.1433 29.3919 17.8403 28.3995C19.5373 27.4072 20.9499 25.9974 21.9429 24.3054C20.9862 24.6646 19.9859 24.8955 18.9681 24.992Z" fill="#D82B5D"/>
<path d="M14.8679 16.1294C15.4616 16.9432 16.3425 17.2801 17.6193 17.3183C17.3694 16.2082 16.793 15.1975 15.9636 14.4152C15.1342 13.633 14.0895 13.1147 12.9629 12.9266C11.8363 12.7386 10.679 12.8892 9.63879 13.3593C8.59858 13.8294 7.7227 14.5976 7.123 15.5659C6.52331 16.5341 6.22704 17.6584 6.27204 18.7952C6.31703 19.9319 6.70125 21.0295 7.37561 21.9477C8.04997 22.8659 8.98387 23.5631 10.058 23.9502C11.1321 24.3373 12.2978 24.3968 13.406 24.1209C11.7231 23.4041 10.2352 22.2993 9.06501 20.8976C8.46236 20.1246 8.18631 19.148 8.2956 18.1754C8.40489 17.2028 8.89088 16.3111 9.65019 15.6899C10.4095 15.0687 11.3822 14.7671 12.3614 14.8492C13.3406 14.9312 14.249 15.3905 14.8934 16.1294H14.8679Z" fill="#D82B5D"/>
</g>
<defs>
<clipPath id="clip0_191_14263">
<rect width="184" height="55" fill="white"/>
</clipPath>
</defs>
</svg>
