<svg width="56" height="56" viewBox="0 0 56 56" fill="none" xmlns="http://www.w3.org/2000/svg">
<g clip-path="url(#clip0_192_16282)">
<path d="M55.1797 41.9913C54.7267 41.9913 54.3594 42.3584 54.3594 42.8116V44.0583C54.3594 44.6916 53.8442 45.2068 53.2109 45.2068H50.6669V34.0966C50.6669 33.1617 49.9064 32.4013 48.9716 32.4013H46.6703C45.7355 32.4013 44.975 33.1617 44.975 34.0966V45.2069H43.3344V37.007C43.3344 36.0722 42.5739 35.3117 41.6391 35.3117H39.3367C38.4019 35.3117 37.6414 36.0722 37.6414 37.007V45.2069H36.0008V40.5453C36.0008 39.6105 35.2403 38.85 34.3055 38.85H32.0042C31.0694 38.85 30.3089 39.6105 30.3089 40.5453V45.2069H4.64844C2.98988 45.2069 1.64062 43.8575 1.64062 42.1991V41.2858C1.64062 39.6273 2.98988 38.278 4.64844 38.278H6.76703C8.18431 38.278 9.33734 37.1249 9.33734 35.7077V11.6713H12.8418C13.2949 11.6713 13.6621 11.3041 13.6621 10.851C13.6621 10.3979 13.2949 10.0307 12.8418 10.0307H9.33734V7.6369C9.33734 6.21962 8.18431 5.06659 6.76703 5.06659H4.64844C2.08523 5.06659 0 7.15182 0 9.71502V41.2858V42.1991C0 44.7623 2.08523 46.8475 4.64844 46.8475H30.3089V49.2928H28.4233C27.9702 49.2928 27.603 49.66 27.603 50.1131C27.603 50.5662 27.9702 50.9334 28.4233 50.9334H52.5523C53.0053 50.9334 53.3726 50.5662 53.3726 50.1131C53.3726 49.66 53.0053 49.2928 52.5523 49.2928H50.6669V46.8475H53.2109C54.7489 46.8475 56 45.5964 56 44.0584V42.8116C56 42.3585 55.6327 41.9913 55.1797 41.9913ZM1.64062 9.71502C1.64062 8.05657 2.98988 6.70721 4.64844 6.70721H6.76703C7.27967 6.70721 7.69672 7.12426 7.69672 7.6369V35.7077C7.69672 36.2203 7.27967 36.6373 6.76703 36.6373H4.64844C3.5023 36.6373 2.45186 37.0542 1.64062 37.7443V9.71502ZM44.975 46.8475V49.2928H43.3344V46.8475H44.975ZM39.3367 36.9523H41.6391C41.6687 36.9523 41.6938 36.9774 41.6938 37.007V49.2928H39.282V37.007C39.282 36.977 39.3065 36.9523 39.3367 36.9523ZM37.6414 46.8475V49.2928H36.0008V46.8475H37.6414ZM31.9495 40.5453C31.9495 40.5152 31.974 40.4906 32.0042 40.4906H34.3055C34.3357 40.4906 34.3602 40.5152 34.3602 40.5453V49.2929H31.9495V40.5453ZM46.6156 49.2928V34.0966C46.6156 34.0665 46.6401 34.0419 46.6703 34.0419H48.9716C49.0017 34.0419 49.0262 34.0665 49.0262 34.0966V49.2929H46.6156V49.2928Z" fill="white"/>
<path d="M53.2091 10.0307H16.668C16.2149 10.0307 15.8477 10.3979 15.8477 10.851C15.8477 11.3042 16.2149 11.6713 16.668 11.6713H53.2091C53.8423 11.6713 54.3575 12.1865 54.3575 12.8198V38.9835C54.3575 39.4366 54.7248 39.8038 55.1778 39.8038C55.6308 39.8038 55.9981 39.4366 55.9981 38.9835V12.8198C55.9981 11.282 54.747 10.0307 53.2091 10.0307Z" fill="white"/>
<path d="M23.9587 36.4403C22.9299 36.4403 22.0261 36.9838 21.5181 37.7985L18.0719 36.8607C18.0356 35.3069 16.7612 34.0539 15.1989 34.0539C13.6139 34.0539 12.3242 35.3434 12.3242 36.9285C12.3242 38.5136 13.6139 39.8032 15.1989 39.8032C16.2282 39.8032 17.1326 39.2591 17.6404 38.4436L21.0857 39.3811C21.1212 40.9356 22.3959 42.1894 23.9587 42.1894C25.5437 42.1894 26.8334 40.8999 26.8334 39.3148C26.8334 38.6733 26.6219 38.0801 26.2653 37.6013L34.2827 26.8556C34.6084 26.984 34.9625 27.0553 35.3333 27.0553C36.3514 27.0553 37.2469 26.5229 37.7578 25.7223L40.5407 26.6555C40.5396 26.6881 40.5381 26.7205 40.5381 26.7534C40.5381 28.3384 41.8278 29.6279 43.4128 29.6279C44.9979 29.6279 46.2876 28.3384 46.2876 26.7534C46.2876 26.0071 46.0015 25.3264 45.5336 24.8149L48.589 19.7296C48.8179 19.7885 49.0578 19.8199 49.3049 19.8199C50.8899 19.8199 52.1795 18.5303 52.1795 16.9453C52.1795 15.3602 50.8899 14.0706 49.3049 14.0706C47.7198 14.0706 46.4302 15.3603 46.4302 16.9454C46.4302 17.6914 46.716 18.3718 47.1837 18.8833L44.1281 23.9689C43.8993 23.9101 43.6597 23.8788 43.4128 23.8788C42.4428 23.8788 41.584 24.3623 41.0631 25.1005L38.207 24.1427C38.1865 22.5752 36.9056 21.3061 35.3333 21.3061C33.7483 21.3061 32.4586 22.5958 32.4586 24.1809C32.4586 24.8002 32.6561 25.3739 32.9906 25.8438L24.9522 36.6175C24.6425 36.503 24.3078 36.4403 23.9587 36.4403ZM49.3049 15.7113C49.9853 15.7113 50.5388 16.2649 50.5388 16.9454C50.5388 17.6258 49.9853 18.1793 49.3049 18.1793C48.6245 18.1793 48.0708 17.6258 48.0708 16.9454C48.0708 16.2649 48.6245 15.7113 49.3049 15.7113ZM43.4128 25.5194C44.0933 25.5194 44.6469 26.073 44.6469 26.7535C44.6469 27.4339 44.0933 27.9874 43.4128 27.9874C42.7324 27.9874 42.1788 27.4338 42.1788 26.7535C42.1788 26.0729 42.7324 25.5194 43.4128 25.5194ZM15.1989 38.1628C14.5185 38.1628 13.9648 37.6091 13.9648 36.9287C13.9648 36.2483 14.5185 35.6948 15.1989 35.6948C15.8793 35.6948 16.433 36.2484 16.433 36.9287C16.4329 37.6091 15.8793 38.1628 15.1989 38.1628ZM23.9587 40.5489C23.2782 40.5489 22.7246 39.9953 22.7246 39.315C22.7246 38.6346 23.2782 38.081 23.9587 38.081C24.6391 38.081 25.1927 38.6346 25.1927 39.315C25.1927 39.9953 24.6391 40.5489 23.9587 40.5489ZM35.3333 22.9467C36.0137 22.9467 36.5674 23.5003 36.5674 24.1807C36.5674 24.8612 36.0137 25.4147 35.3333 25.4147C34.6529 25.4147 34.0992 24.8611 34.0992 24.1807C34.0994 23.5003 34.6529 22.9467 35.3333 22.9467Z" fill="white"/>
<path d="M27.0053 14.5623C26.7607 14.3715 26.4445 14.2866 26.1367 14.3304C25.8294 14.374 25.5489 14.5431 25.3667 14.7947L25.0536 15.2276C23.763 14.4697 22.3029 14.0711 20.7844 14.0711C16.1194 14.0711 12.3242 17.8658 12.3242 22.5302C12.3242 27.1951 16.1194 30.9904 20.7844 30.9904C25.1724 30.9904 28.7899 27.6322 29.2041 23.351H29.7382C30.0483 23.351 30.3496 23.2229 30.565 22.9995C30.7808 22.7756 30.8981 22.4687 30.8866 22.1576C30.8325 20.6957 30.4522 19.2343 29.7866 17.9314C29.1207 16.628 28.159 15.4629 27.0053 14.5623ZM26.3882 16.1819C27.1808 16.8829 27.8452 17.7374 28.3257 18.6778C28.8062 19.6182 29.1092 20.6574 29.2127 21.7104H22.3901L26.3882 16.1819ZM20.7845 29.3497C17.0242 29.3497 13.965 26.2904 13.965 22.5301C13.965 18.7704 17.0242 15.7116 20.7845 15.7116C21.9549 15.7116 23.0821 16.0043 24.0875 16.5635L20.4963 21.5294C20.4963 21.5295 20.4963 21.5295 20.4962 21.5296C20.2422 21.8809 20.2069 22.339 20.4042 22.7252C20.6015 23.1112 20.9933 23.351 21.4268 23.351H27.5528C27.1459 26.7255 24.2669 29.3497 20.7845 29.3497Z" fill="white"/>
<path d="M40.5745 19.8265C40.7255 19.9471 40.9061 20.0056 41.0855 20.0056C41.3265 20.0056 41.5653 19.8998 41.7273 19.6968L43.0695 18.014C43.3735 17.6327 43.3735 17.0999 43.0694 16.7183L41.7273 15.0357C41.4448 14.6816 40.9285 14.6233 40.5745 14.9059C40.2203 15.1884 40.1621 15.7045 40.4447 16.0587L41.4875 17.3661L40.4447 18.6736C40.1621 19.0279 40.2203 19.544 40.5745 19.8265Z" fill="white"/>
<path d="M37.2152 19.8265C37.3663 19.9471 37.5468 20.0056 37.7262 20.0056C37.9673 20.0056 38.206 19.8998 38.368 19.6968L39.7101 18.0143C40.0144 17.6328 40.0144 17.0998 39.7101 16.7183L38.3679 15.0357C38.0854 14.6816 37.5693 14.6233 37.2151 14.9059C36.8609 15.1884 36.8028 15.7045 37.0853 16.0587L38.1282 17.3661L37.0853 18.6736C36.8029 19.0279 36.8611 19.544 37.2152 19.8265Z" fill="white"/>
<path d="M33.8557 19.8265C34.0068 19.9471 34.1874 20.0056 34.3667 20.0056C34.6078 20.0056 34.8466 19.8998 35.0085 19.6968L36.3507 18.0143C36.6551 17.6328 36.6551 17.0998 36.3507 16.7183L35.0085 15.0357C34.726 14.6816 34.2099 14.6233 33.8557 14.9059C33.5016 15.1884 33.4434 15.7045 33.7259 16.0587L34.7688 17.3661L33.7259 18.6736C33.4435 19.0279 33.5016 19.544 33.8557 19.8265Z" fill="white"/>
</g>
<defs>
<clipPath id="clip0_192_16282">
<rect width="56" height="56" fill="white"/>
</clipPath>
</defs>
</svg>
