<svg width="46" height="46" viewBox="0 0 46 46" fill="none" xmlns="http://www.w3.org/2000/svg">
<g clip-path="url(#clip0_192_16293)">
<path d="M40.8189 12.4169C40.8127 12.2473 40.741 12.0818 40.6201 11.9622L28.7199 0.194691C28.5954 0.0716953 28.421 0 28.2461 0H9.99998C8.304 0 6.92418 1.36778 6.92418 3.04903V6.55769C6.92418 7.42891 8.27184 7.42891 8.27184 6.55769V3.04903C8.27184 2.11088 9.0471 1.34766 9.99998 1.34766H27.5723V9.40466C27.5723 11.4507 29.2521 13.1153 31.3171 13.1153H39.4725V42.9511C39.4725 43.8891 38.6972 44.6524 37.7444 44.6524H9.99998C9.0471 44.6524 8.27184 43.8892 8.27184 42.9511V40.8219H26.2343C27.1055 40.8219 27.1055 39.4743 26.2343 39.4743H7.65039C7.0311 39.4743 6.52734 38.9705 6.52734 38.3512V27.4281C6.52734 26.8088 7.0311 26.3051 7.65039 26.3051H32.6249C33.2442 26.3051 33.7479 26.8088 33.7479 27.4281V38.3512C33.7479 38.9705 33.2442 39.4743 32.6249 39.4743H29.9533C29.0821 39.4743 29.0821 40.8219 29.9533 40.8219H32.6249C33.9873 40.8219 35.0956 39.7136 35.0956 38.3512V27.4281C35.0956 26.0657 33.9873 24.9574 32.6249 24.9574H8.27184V10.1059C8.27184 9.23468 6.92418 9.23468 6.92418 10.1059V25.0664C5.91515 25.3774 5.17969 26.3184 5.17969 27.428V38.3512C5.17969 39.4608 5.91515 40.4018 6.92418 40.7128V42.951C6.92418 44.6322 8.304 46 9.99998 46H37.7444C39.4403 46 40.8202 44.6322 40.8202 42.951V12.4415C40.8202 12.4332 40.8192 12.4251 40.8189 12.4169ZM28.9199 9.40466V2.28778L38.5065 11.7676H31.317C29.9952 11.7676 28.9199 10.7076 28.9199 9.40466Z" fill="white"/>
<path d="M29.2113 30.1729C30.0825 30.1729 30.0825 28.8252 29.2113 28.8252H26.4629C26.0908 28.8252 25.7891 29.1269 25.7891 29.499V36.2802C25.7891 37.1515 27.1367 37.1515 27.1367 36.2802V33.4992H28.993C29.8642 33.4992 29.8642 32.1516 28.993 32.1516H27.1367V30.1729H29.2113Z" fill="white"/>
<path d="M17.7461 36.0965C17.7461 36.145 17.7515 36.1921 17.7612 36.2377C17.7695 36.4051 17.8393 36.5638 17.9587 36.6824C18.0849 36.8077 18.2556 36.878 18.4334 36.878H18.4359C18.4926 36.8778 19.8303 36.8726 20.3641 36.8633C22.2671 36.83 23.6483 35.1588 23.6483 32.8896C23.6483 30.5039 22.3017 28.9011 20.2975 28.9011H18.42C18.241 28.9011 18.0695 28.9723 17.9431 29.099C17.8167 29.2256 17.7458 29.3973 17.7462 29.5763V29.5817V29.582V36.0965H17.7461ZM20.2975 30.249C21.7744 30.249 22.3006 31.6131 22.3006 32.8897C22.3006 34.1381 21.6873 35.4924 20.3406 35.516C20.059 35.5209 19.5335 35.5247 19.1049 35.5272C19.1024 34.7466 19.0986 33.4909 19.0986 32.8825C19.0986 32.3751 19.0964 31.0601 19.095 30.249H20.2975Z" fill="white"/>
<path d="M11.0645 28.8002C10.6973 28.8002 10.3906 29.1069 10.3906 29.474V36.3052C10.3906 37.1764 11.7383 37.1764 11.7383 36.3052V34.0081C12.1614 34.0058 12.6837 34.0033 12.9665 34.0033C14.4219 34.0033 15.6059 32.8363 15.6059 31.4017C15.6059 29.9672 14.4219 28.8001 12.9665 28.8001H11.0645V28.8002ZM14.2582 31.4018C14.2582 32.0815 13.6667 32.6558 12.9665 32.6558C12.6858 32.6558 12.1701 32.6582 11.7477 32.6604C11.7455 32.2258 11.743 31.6896 11.743 31.4019C11.743 31.1597 11.7415 30.6018 11.7403 30.1479H12.9665C13.6667 30.1479 14.2582 30.7221 14.2582 31.4018Z" fill="white"/>
</g>
<defs>
<clipPath id="clip0_192_16293">
<rect width="46" height="46" fill="white"/>
</clipPath>
</defs>
</svg>
