<svg width="56" height="56" viewBox="0 0 56 56" fill="none" xmlns="http://www.w3.org/2000/svg">
<g clip-path="url(#clip0_192_16272)">
<path d="M54.5432 42.3477H51.7384C52.409 41.5378 52.8113 40.5052 52.8113 39.4038V10.8082C52.8113 8.25382 50.7331 6.1756 48.1787 6.1756H29.9141C29.4609 6.1756 29.0938 6.54277 29.0938 6.99591C29.0938 7.44905 29.4609 7.81622 29.9141 7.81622H48.1786C49.8284 7.81622 51.1706 9.15835 51.1706 10.8082V39.4037C51.1706 40.8373 50.1172 42.092 48.7103 42.3476C47.499 42.3476 9.18889 42.3476 7.28971 42.3476C5.88282 42.092 4.82943 40.8373 4.82943 39.4037V10.8082C4.82943 9.15835 6.17157 7.81622 7.82138 7.81622H26.0858C26.539 7.81622 26.9061 7.44905 26.9061 6.99591C26.9061 6.54277 26.539 6.1756 26.0858 6.1756H7.82149C5.26715 6.1756 3.18893 8.25382 3.18893 10.8082V39.4037C3.18893 40.5051 3.5911 41.5377 4.26178 42.3476H1.45687C0.653513 42.3476 0 43.004 0 43.8107V46.0215C0 48.1184 1.69301 49.8244 3.77408 49.8244H52.226C54.307 49.8244 56 48.1184 56 46.0215V43.8107C56 43.0041 55.3465 42.3477 54.5432 42.3477ZM20.8915 43.9883H35.1086V44.6514C35.1086 44.9251 34.8831 45.1565 34.6163 45.1565H21.3838C21.1171 45.1565 20.8915 44.9251 20.8915 44.6514V43.9883ZM54.3594 46.0216C54.3594 47.2138 53.4024 48.1838 52.226 48.1838H3.77408C2.59765 48.1837 1.64062 47.2138 1.64062 46.0216V43.9883H19.2509V44.6514C19.2509 45.8345 20.2077 46.7971 21.3838 46.7971H34.6163C35.7924 46.7971 36.7492 45.8345 36.7492 44.6514V43.9883H54.3594V46.0216Z" fill="white"/>
<path d="M39.2552 33.3534C39.7083 33.3534 40.0755 32.9862 40.0755 32.5331C40.0755 31.5134 40.0755 23.4035 40.0755 22.2399V21.6927C40.0755 21.2395 39.7083 20.8724 39.2552 20.8724C38.802 20.8724 38.4348 21.2395 38.4348 21.6927V21.7184L35.5 23.0938V21.9843C35.5 20.3188 34.1451 18.964 32.4797 18.964H18.942C17.2767 18.964 15.9219 20.3189 15.9219 21.9843V32.2412C15.9219 33.9067 17.2768 35.2615 18.942 35.2615H32.4796C34.1451 35.2615 35.4999 33.9066 35.4999 32.2412V31.132L38.4347 32.5073V32.5328C38.4348 32.9862 38.802 33.3534 39.2552 33.3534ZM33.8594 32.2413C33.8594 33.0021 33.2404 33.621 32.4797 33.621H18.942C18.1813 33.621 17.5625 33.0021 17.5625 32.2413V21.9844C17.5625 21.2237 18.1813 20.6047 18.942 20.6047H32.4796C33.2403 20.6047 33.8593 21.2237 33.8593 21.9844C33.8594 23.0556 33.8594 31.0921 33.8594 32.2413ZM35.5 29.3203V24.9057L38.4348 23.5303V30.6958L35.5 29.3203Z" fill="white"/>
<path d="M40.9023 19.2625C40.9023 20.72 42.0881 21.9057 43.5456 21.9057C45.0031 21.9057 46.1889 20.72 46.1889 19.2625C46.1889 17.805 45.0031 16.6193 43.5456 16.6193C42.0881 16.6193 40.9023 17.805 40.9023 19.2625ZM44.5482 19.2625C44.5482 19.8153 44.0985 20.2651 43.5456 20.2651C42.9927 20.2651 42.543 19.8153 42.543 19.2625C42.543 18.7096 42.9927 18.2599 43.5456 18.2599C44.0985 18.2599 44.5482 18.7097 44.5482 19.2625Z" fill="white"/>
<path d="M28.7251 25.7247L25.2049 23.3244C24.0908 22.5646 22.5781 23.3642 22.5781 24.7125V29.5132C22.5781 30.8613 24.0905 31.6611 25.2049 30.9013L28.7251 28.501C29.7024 27.8344 29.7019 26.3911 28.7251 25.7247ZM27.8007 27.1456L24.2804 29.5458C24.2532 29.5647 24.2187 29.5459 24.2187 29.5131V24.7124C24.2187 24.6813 24.2509 24.6595 24.2804 24.6797L27.8007 27.0799C27.8243 27.0961 27.8243 27.1296 27.8007 27.1456Z" fill="white"/>
<path d="M48.5659 26.0192C49.019 26.0192 49.3862 25.6521 49.3862 25.1989C49.3862 25.1345 49.3862 11.4209 49.3862 11.0791C49.3862 10.2496 48.7113 9.57477 47.882 9.57477C47.3824 9.57477 8.89735 9.57477 8.11762 9.57477C7.28812 9.57477 6.61328 10.2496 6.61328 11.0791V39.0902C6.61328 39.9197 7.28812 40.5946 8.11762 40.5946H47.882C48.7113 40.5946 49.3862 39.9197 49.3862 39.0902V29.027C49.3862 28.5739 49.019 28.2067 48.5659 28.2067C48.1127 28.2067 47.7456 28.5739 47.7456 29.027V38.954H8.25401V15.2719H47.7456V25.1989C47.7456 25.6519 48.1128 26.0192 48.5659 26.0192ZM11.0596 13.6312H8.25401V11.2154H11.0596V13.6312ZM12.7002 13.6312V11.2154H47.7456V13.6312H12.7002Z" fill="white"/>
</g>
<defs>
<clipPath id="clip0_192_16272">
<rect width="56" height="56" fill="white"/>
</clipPath>
</defs>
</svg>
