<svg width="18" height="18" viewBox="0 0 18 18" fill="none" xmlns="http://www.w3.org/2000/svg">
<path d="M17.3859 6.04743L13.3114 1.97286C12.9752 1.63666 12.6341 1.46619 12.2978 1.46619C11.8361 1.46619 11.2969 1.8174 11.2969 2.80726V4.19442C8.33657 4.32344 5.57205 5.53749 3.46352 7.64591C1.23026 9.87904 0.000210938 12.8482 0 16.0064C0 16.2333 0.145125 16.4348 0.360352 16.5066C0.415301 16.5249 0.471551 16.5338 0.527273 16.5338C0.689941 16.5338 0.847406 16.4583 0.948938 16.3231C3.43867 13.0091 7.18703 11.0506 11.2969 10.896V12.2618C11.2969 13.2516 11.8361 13.6029 12.2978 13.6029H12.2979C12.6342 13.6029 12.9752 13.4324 13.3114 13.0962L17.3859 9.02158C17.7819 8.62568 18 8.09757 18 7.5345C18 6.97155 17.7819 6.4434 17.3859 6.04743Z" fill="white"/>
</svg>
