<svg width="58" height="58" viewBox="0 0 58 58" fill="none" xmlns="http://www.w3.org/2000/svg">
<g clip-path="url(#clip0_262_842)">
<path d="M55.2585 19.6389L40.0189 28.7228C38.8938 29.3934 38.4431 30.7732 38.8969 31.9578C38.2175 32.2428 37.457 32.2562 36.7604 31.987L34.789 31.2125C34.0025 30.9033 33.1535 30.8495 32.334 31.0571L29.3134 31.8215C29.1963 31.8511 29.0816 31.8857 28.9693 31.925C27.1239 30.8715 26.0247 30.5566 24.0774 31.3096L22.3291 31.9854C21.5029 32.3047 20.592 32.229 19.8282 31.7765L19.2442 31.4323C19.4118 30.3875 18.9428 29.2961 17.9811 28.7229L2.74152 19.6389C1.53315 18.9189 0 19.788 0 21.1964V38.2081C0 39.3828 0.626785 40.486 1.63578 41.0874L8.2897 45.0538C9.52741 45.7913 11.1184 45.4089 11.8889 44.2061L12.1733 44.374L11.3106 45.5758C10.3469 46.9178 10.6533 48.7839 11.9956 49.7477C12.6591 50.224 13.4677 50.4037 14.26 50.263C14.3813 51.0647 14.8131 51.7704 15.4723 52.2437C16.134 52.7187 16.9477 52.8975 17.7378 52.7573C17.8541 53.527 18.2682 54.2509 18.949 54.7396C19.8664 55.3982 21.0038 55.4518 21.9272 55.0351C22.1303 55.5981 22.4979 56.0864 22.9945 56.4431C24.2848 57.3692 26.0739 57.1192 27.0633 55.8933L29.2983 57.2173C29.7753 57.5 30.2996 57.6343 30.8174 57.6343C31.8397 57.6343 32.8372 57.1105 33.395 56.1689C33.6305 55.7714 33.7631 55.3408 33.8007 54.9087L33.8877 54.9602C34.575 55.3673 35.3798 55.4827 36.1533 55.2844C36.9271 55.0864 37.5774 54.5988 37.9845 53.9118C38.2362 53.487 38.3762 53.0173 38.3997 52.5379C38.8977 52.677 39.4258 52.6835 39.9403 52.552C40.7141 52.3539 41.3644 51.8664 41.7714 51.1793C42.0083 50.7797 42.1464 50.3403 42.1813 49.8902C43.5374 50.4642 45.1468 49.9604 45.9174 48.6597C46.5942 47.5174 46.4207 46.1031 45.5866 45.1568L46.4625 44.6452C47.293 45.4836 48.6297 45.6977 49.7104 45.0536L51.319 44.0947C51.7222 43.8545 51.8542 43.3329 51.6139 42.93C51.3735 42.5267 50.8516 42.3949 50.4491 42.6351L48.8405 43.594C48.4613 43.8202 47.9995 43.7513 47.7019 43.479C47.6964 43.4312 40.5546 31.496 40.5546 31.496C40.2855 31.0419 40.4355 30.4526 40.8889 30.1823L56.1285 21.0984C56.2062 21.0526 56.3008 21.1072 56.3008 21.1963V38.2079C56.3008 38.7872 55.9916 39.3312 55.4942 39.6277L53.888 40.5852C53.4848 40.8254 53.3529 41.347 53.5931 41.7499C53.8333 42.1531 54.3552 42.2846 54.7579 42.0448L56.3641 41.0873C57.3731 40.4859 57.9999 39.3827 57.9999 38.2079V21.1964C58 19.7899 56.4683 18.9176 55.2585 19.6389ZM32.7507 32.7043C33.2237 32.5847 33.7136 32.6157 34.1677 32.794L36.1434 33.5702C37.3227 34.0262 38.6106 33.9761 39.7341 33.4454L45.5272 43.2238L44.5884 43.7723C44.4178 43.8734 44.2542 43.9853 44.0986 44.1074L31.7089 36.7703C31.4462 36.6148 31.1203 36.6122 30.8553 36.7633C30.5901 36.9144 30.4264 37.1961 30.4264 37.5014V37.6721C30.4264 38.2765 30.191 38.8447 29.7635 39.2719C29.3363 39.6988 28.7686 39.9338 28.1649 39.9338C28.0668 39.9302 27.9804 39.8514 27.9802 39.7491V35.7169C27.9802 34.8384 28.472 34.0543 29.2245 33.6615C29.2619 33.6465 29.2984 33.6287 29.3335 33.6083C29.4595 33.5507 29.5921 33.5038 29.7302 33.4688L32.7507 32.7043ZM9.88798 43.6998C9.6391 43.7628 9.38037 43.7258 9.1597 43.594L2.50578 39.6278C2.00825 39.3312 1.69922 38.7873 1.69922 38.2081V21.1964C1.69922 21.1783 1.69922 21.1301 1.75688 21.0974C1.7784 21.0851 1.79777 21.0808 1.81431 21.0808C1.84195 21.0808 1.86178 21.0926 1.87152 21.0984L17.1112 30.1823C17.5646 30.4526 17.7147 31.0419 17.4455 31.4961L10.4769 43.2589C10.3461 43.4798 10.1369 43.6365 9.88798 43.6998ZM13.9481 48.5924C13.608 48.6484 13.2666 48.5683 12.9864 48.3674C12.7065 48.1664 12.5215 47.8685 12.4657 47.5284C12.4098 47.1882 12.4897 46.8468 12.6908 46.5669L13.9029 44.8784C13.9325 44.8372 13.9642 44.7983 13.9975 44.7617C14.0226 44.7392 14.0465 44.7148 14.0692 44.689C14.5095 44.2765 15.1954 44.218 15.7036 44.5827C16.2816 44.9977 16.4142 45.8055 15.9993 46.3835C15.9986 46.3844 15.9979 46.3854 15.9972 46.3863L14.7871 48.0719C14.5862 48.3517 14.2882 48.5366 13.9481 48.5924ZM16.4632 50.8633C16.1832 50.6623 15.9983 50.3644 15.9424 50.0243C15.8866 49.6841 15.9664 49.3427 16.1675 49.0628L17.3796 47.3743C17.3796 47.3743 17.3796 47.3742 17.3797 47.3742L18.7173 45.511C18.9183 45.2309 19.2162 45.0461 19.5564 44.9901C19.6272 44.9784 19.6979 44.9728 19.7683 44.9728C20.0359 44.9728 20.2963 45.056 20.5181 45.2153C21.096 45.6301 21.2287 46.4379 20.8137 47.016L18.2638 50.5678C17.8488 51.1457 17.041 51.2779 16.4632 50.8633ZM20.9014 53.5843C20.5615 53.6401 20.2199 53.5602 19.9399 53.3592C19.3619 52.9444 19.2293 52.1366 19.6442 51.5586C19.6449 51.5576 19.6456 51.5567 19.6463 51.5556L22.1942 48.0067C22.609 47.4286 23.4168 47.2963 23.9949 47.711C24.2748 47.912 24.4598 48.2099 24.5156 48.5501C24.5715 48.8901 24.4915 49.2317 24.2906 49.5116L21.7406 53.0634C21.5395 53.3435 21.2415 53.5284 20.9014 53.5843ZM23.9854 55.0626C23.7055 54.8617 23.5205 54.5637 23.4646 54.2235C23.4088 53.8835 23.4886 53.542 23.6897 53.2621C23.6906 53.2609 23.6914 53.2597 23.6922 53.2585L24.5385 52.0797C24.9538 51.5029 25.7607 51.3707 26.3382 51.7853C26.9162 52.2002 27.0488 53.008 26.6339 53.586L26.149 54.2614C26.144 54.2682 26.139 54.2752 26.1341 54.2822L25.786 54.7672C25.3713 55.3449 24.5636 55.4777 23.9854 55.0626ZM44.4555 47.7937C44.0927 48.406 43.2989 48.6091 42.6871 48.2463L40.7229 47.0827C40.722 47.0823 40.7212 47.0817 40.7203 47.0813L34.6371 43.4773C34.2333 43.2382 33.7122 43.3715 33.4731 43.7752C33.234 44.1789 33.3672 44.7001 33.771 44.9391L39.8569 48.5446C39.8569 48.5446 39.8569 48.5446 39.857 48.5447L39.8578 48.5452C40.4695 48.9083 40.6722 49.7012 40.3097 50.3133C40.1339 50.61 39.8531 50.8205 39.5191 50.9059C39.185 50.9913 38.8376 50.9418 38.5409 50.7659L36.9399 49.8175C36.9385 49.8167 36.9374 49.8159 36.936 49.8151C36.9352 49.8146 36.9343 49.8141 36.9335 49.8136L32.452 47.1586C32.0482 46.9194 31.5272 47.0528 31.2881 47.4565C31.0489 47.8602 31.1821 48.3814 31.5859 48.6204L36.0675 51.2755C36.0684 51.2761 36.0693 51.2766 36.0701 51.2771C36.3667 51.4528 36.5773 51.7335 36.6627 52.0676C36.7482 52.4016 36.6984 52.7491 36.5227 53.0457C36.347 53.3424 36.0663 53.5529 35.7321 53.6383C35.3981 53.7239 35.0506 53.6741 34.754 53.4984L32.3512 52.0749C32.3496 52.074 32.3481 52.073 32.3467 52.0721L30.5895 51.0312C30.1859 50.7922 29.6647 50.9254 29.4255 51.3292C29.1865 51.7328 29.3197 52.254 29.7235 52.4932L31.4806 53.5341L31.483 53.5355C32.0937 53.8989 32.2958 54.691 31.9335 55.3028C31.5705 55.9152 30.777 56.1181 30.1649 55.7556L28.0617 54.5096C28.9656 53.1757 28.6465 51.3503 27.3297 50.4048C26.9272 50.116 26.4767 49.9417 26.0172 49.8756C26.2204 49.3732 26.2827 48.8233 26.1927 48.2749C26.0633 47.4869 25.6348 46.7965 24.9861 46.3308C24.3054 45.8422 23.4871 45.6813 22.7206 45.8172C22.6043 45.0475 22.1902 44.3235 21.5094 43.8349C20.8606 43.3692 20.0697 43.1841 19.2815 43.3133C18.6233 43.4214 18.0334 43.7381 17.5854 44.2175C17.3768 43.8272 17.0781 43.4775 16.6949 43.2023C15.6796 42.4734 14.3581 42.4739 13.3591 43.1007L12.7567 42.7451L18.5372 32.9878L18.9641 33.2394C19.6819 33.6648 20.4827 33.8806 21.2895 33.8806C21.8461 33.8806 22.4054 33.7779 22.9423 33.5703L24.6904 32.8945C25.7355 32.4908 26.2967 32.4716 27.3518 32.9849C26.681 33.7086 26.2814 34.6744 26.2814 35.7169V39.7491C26.2814 40.7871 27.1252 41.6322 28.1625 41.633H28.1651C29.2226 41.633 30.2169 41.2213 30.965 40.4738C31.419 40.0201 31.7493 39.4756 31.9391 38.8813L43.7729 45.8891C43.812 45.9123 43.8523 45.9319 43.8935 45.9482C43.9275 45.9763 43.964 46.0022 44.0032 46.0254C44.6151 46.3881 44.8183 47.1814 44.4555 47.7937Z" fill="#163656"/>
<path d="M19.261 22.5035H38.7391C40.5027 22.5035 41.9374 21.0688 41.9374 19.3052V7.71632C41.9374 5.95276 40.5027 4.51805 38.7391 4.51805H34.0502V3.17181C34.0502 1.62462 32.7916 0.365723 31.2446 0.365723H26.7553C25.2084 0.365723 23.9497 1.6245 23.9497 3.17181V4.51805H19.2608C17.4972 4.51805 16.0625 5.95276 16.0625 7.71632V14.1003C16.0625 14.5696 16.4429 14.9499 16.9121 14.9499C17.3813 14.9499 17.7617 14.5696 17.7617 14.1003V12.5213C18.6659 13.3327 19.8604 13.8269 21.168 13.8269H21.8329V14.7615C21.8329 15.2308 22.2133 15.6111 22.6825 15.6111C23.1518 15.6111 23.5322 15.2308 23.5322 14.7615V13.8269H34.4675V14.7615C34.4675 15.2308 34.8478 15.6111 35.3171 15.6111C35.7865 15.6111 36.1667 15.2308 36.1667 14.7615V13.8269H36.8316C38.1393 13.8269 39.3338 13.3327 40.238 12.5213V19.3051C40.238 20.1317 39.5654 20.8042 38.7389 20.8042H19.261C18.4344 20.8042 17.7619 20.1316 17.7619 19.3051V18.0722C17.7619 17.6028 17.3815 17.2225 16.9123 17.2225C16.4431 17.2225 16.0627 17.6028 16.0627 18.0722V19.3051C16.0627 21.0688 17.4974 22.5035 19.261 22.5035ZM25.6492 3.17181C25.6492 2.56145 26.1454 2.06494 26.7556 2.06494H31.2448C31.8549 2.06494 32.3512 2.56145 32.3512 3.17181V4.51805H25.6493V3.17181H25.6492ZM36.8319 12.1277H36.1671V11.1931C36.1671 10.7238 35.7868 10.3435 35.3175 10.3435C34.8482 10.3435 34.4679 10.7238 34.4679 11.1931V12.1277H23.5325V11.1931C23.5325 10.7238 23.1521 10.3435 22.6829 10.3435C22.2137 10.3435 21.8333 10.7238 21.8333 11.1931V12.1277H21.1683C19.2901 12.1277 17.7621 10.5997 17.7621 8.72146V7.71632C17.7621 6.8897 18.4345 6.21727 19.2611 6.21727H38.7393C39.5659 6.21727 40.2383 6.88982 40.2383 7.71632V8.72146C40.2383 10.5997 38.7103 12.1277 36.8319 12.1277Z" fill="#163656"/>
</g>
<defs>
<clipPath id="clip0_262_842">
<rect width="58" height="58" fill="white"/>
</clipPath>
</defs>
</svg>
