<svg width="49" height="49" viewBox="0 0 49 49" fill="none" xmlns="http://www.w3.org/2000/svg">
<g clip-path="url(#clip0_262_789)">
<path d="M43.9885 36.1505C42.7557 34.5024 41.0611 33.3238 39.0873 32.7413L34.1942 31.2157C34.1938 31.2156 34.1934 31.2154 34.1931 31.2153L30.693 30.1241C30.38 30.0262 30.0492 30.0383 29.751 30.1475C29.5032 29.9268 29.354 29.607 29.354 29.2667V29.0478L34.7592 27.6424C36.6024 27.163 37.8898 25.4982 37.8898 23.5936V20.923C38.6517 20.6212 39.1924 19.8774 39.1924 19.0093V15.527C39.1924 14.6537 38.6567 13.9136 37.8898 13.6142V12.917C37.8898 12.3797 37.8556 11.8388 37.7883 11.309C37.7386 10.9183 37.3813 10.6427 36.9908 10.6914C36.6001 10.7411 36.3236 11.0981 36.3733 11.4889C36.433 11.9592 36.4633 12.4396 36.4633 12.917V14.1844V14.2683C36.0817 14.1765 35.5898 14.0265 35.0626 13.7859C35.0375 13.7745 35.0128 13.7628 34.9879 13.7513C33.9808 13.2782 32.8589 12.4715 32.1311 11.1044C32.1202 11.0837 32.1092 11.0629 32.0985 11.042C32.0712 10.9893 32.0445 10.9359 32.0184 10.8814C31.9983 10.8392 31.979 10.7964 31.9597 10.7535C31.9418 10.7139 31.9237 10.6748 31.9065 10.6344C31.8694 10.547 31.8336 10.4585 31.8001 10.3684C31.7203 10.1538 31.5424 9.99069 31.3218 9.92969C31.2666 9.91439 31.2104 9.90594 31.1544 9.90413C31.1438 9.90375 31.1333 9.9048 31.1227 9.90499C31.1053 9.90518 31.088 9.90489 31.0707 9.90641C30.9478 9.91696 30.8291 9.96038 30.726 10.0319C30.7126 10.0412 30.6988 10.05 30.6859 10.0602C30.6834 10.0622 30.6733 10.0702 30.6574 10.0827C30.6556 10.0841 30.6543 10.085 30.6523 10.0866C30.6463 10.0912 30.6384 10.0973 30.6309 10.1031C30.6255 10.1073 30.6203 10.1114 30.614 10.1161C30.6076 10.121 30.5999 10.1269 30.5927 10.1325C30.5821 10.1406 30.5712 10.149 30.5589 10.1583C30.5534 10.1625 30.5473 10.1671 30.5414 10.1716C30.5252 10.1838 30.5079 10.197 30.489 10.2112C30.4851 10.2142 30.481 10.2172 30.477 10.2202C29.1573 11.2102 21.8137 16.419 14.7663 15.4249C14.7538 15.4231 14.7414 15.4212 14.7289 15.4194C14.6157 15.403 14.5024 15.3848 14.3893 15.3652C14.357 15.3596 14.3248 15.3538 14.2925 15.3479C14.1949 15.3302 14.0974 15.3111 13.9999 15.2908C13.9685 15.2843 13.937 15.278 13.9057 15.2712C13.7931 15.2468 13.6807 15.2207 13.5684 15.1929C13.5228 15.1816 13.4776 15.1692 13.4322 15.1573C13.3626 15.1392 13.2933 15.1205 13.2239 15.101C13.1691 15.0856 13.1143 15.0699 13.0597 15.0537C12.9839 15.0311 12.9082 15.0073 12.8326 14.9831C12.7647 14.9613 12.6972 14.9389 12.6298 14.9159C12.5538 14.89 12.4779 14.8635 12.4022 14.8357C12.357 14.8192 12.312 14.8025 12.2672 14.7854C12.165 14.7465 12.0631 14.7065 11.9614 14.6643C11.9521 14.6604 11.9426 14.6569 11.9333 14.653V14.3014V12.9169C11.9333 6.74128 16.9575 1.71706 23.1331 1.71706H25.2634C29.742 1.71706 33.7813 4.37501 35.554 8.48864C35.7099 8.85045 36.1296 9.01739 36.4913 8.86138C36.853 8.70546 37.0199 8.28589 36.864 7.92418C34.8657 3.28704 30.3122 0.290649 25.2634 0.290649H23.1332C16.171 0.290649 10.507 5.95468 10.507 12.9169V13.9061C10.0144 14.2909 9.71352 14.8862 9.71352 15.5269V19.0092C9.71352 19.6674 10.0246 20.254 10.507 20.6311V23.5657C10.507 25.4901 11.811 27.1591 13.6781 27.6247L19.5519 29.0894V29.2667C19.5519 29.6071 19.4026 29.927 19.1548 30.1477C18.8566 30.0385 18.5259 30.0266 18.2131 30.1241L14.7129 31.2154C14.7125 31.2155 14.7121 31.2157 14.7117 31.2157L9.8188 32.7414C7.10602 33.5418 4.91087 35.4921 3.79562 38.093C3.70992 38.293 3.63001 38.4986 3.55828 38.7043C3.42849 39.0763 3.62469 39.4829 3.99667 39.6127C4.36864 39.7422 4.77519 39.5463 4.90507 39.1743C4.96607 38.9996 5.03391 38.8249 5.10669 38.655C6.05453 36.4443 7.92084 34.787 10.227 34.108C10.2306 34.107 10.2342 34.1059 10.2378 34.1048L14.6944 32.7152L18.4195 36.9665C18.9614 37.585 19.7283 37.9211 20.5185 37.9211C20.8207 37.921 21.1263 37.8719 21.424 37.7705L24.4529 36.7387L27.1765 37.6665C27.5256 37.7853 27.8838 37.843 28.2382 37.843C29.1644 37.8429 30.0636 37.4488 30.6989 36.7239L34.2114 32.7152L38.668 34.1048C38.6716 34.1059 38.6752 34.107 38.6788 34.108C40.3571 34.6022 41.7982 35.604 42.8461 37.0049C43.8941 38.4059 44.448 40.0711 44.448 41.8208V47.4167C44.448 47.4682 44.4061 47.5101 44.3547 47.5101H40.5021V40.99C40.5021 40.5961 40.1828 40.2767 39.7888 40.2767C39.3949 40.2767 39.0756 40.596 39.0756 40.99V47.5101H9.8302V40.99C9.8302 40.5961 9.51086 40.2767 9.11695 40.2767C8.72303 40.2767 8.40369 40.596 8.40369 40.99V47.5101H4.55106C4.49956 47.5101 4.45776 47.4682 4.45776 47.4167V42.2803C4.45776 41.8864 4.13842 41.5671 3.7445 41.5671C3.35058 41.5671 3.03125 41.8863 3.03125 42.2803V47.4167C3.03125 48.2547 3.71305 48.9366 4.55106 48.9366H44.3547C45.1927 48.9366 45.8745 48.2548 45.8745 47.4167V41.8208C45.8745 39.7609 45.2223 37.8002 43.9885 36.1505ZM34.4002 26.2616L30.9749 27.1523C31.0188 27.1205 31.061 27.0868 31.1043 27.0545C31.1222 27.0412 31.1398 27.0276 31.1576 27.0142C31.2796 26.9223 31.3995 26.8279 31.5173 26.7312C31.5327 26.7186 31.5481 26.7059 31.5634 26.6932C31.6892 26.5888 31.8126 26.4819 31.9336 26.3722C31.9394 26.3669 31.9453 26.3618 31.9511 26.3565C32.1445 26.1805 32.3314 25.9981 32.5117 25.8094C32.5252 25.7953 32.5384 25.781 32.5517 25.7669C32.6409 25.6726 32.7288 25.577 32.8147 25.4797L33.6197 25.3416C34.9458 25.1142 36.0022 24.2104 36.4631 23.0195V23.5935H36.4631C36.4632 24.8486 35.6149 25.9458 34.4002 26.2616ZM35.5031 19.6135C35.5349 19.3786 35.5595 19.1415 35.5764 18.9021C35.5781 18.8779 35.5794 18.8537 35.5811 18.8295C35.587 18.736 35.5919 18.6424 35.5955 18.5483C35.5967 18.518 35.5981 18.4878 35.5989 18.4575C35.6025 18.3416 35.6049 18.2255 35.6049 18.1087V15.5166C36.4368 15.7666 37.0428 15.8219 37.1183 15.828C37.1187 15.828 37.1197 15.8281 37.12 15.8281C37.1203 15.8281 37.1205 15.8281 37.1208 15.8281C37.3188 15.8437 37.5145 15.7759 37.6604 15.6409C37.6795 15.6233 37.6974 15.6046 37.7144 15.5852C37.7203 15.5783 37.7255 15.5709 37.7312 15.5639C37.7416 15.5509 37.7522 15.5379 37.7617 15.5242C37.7629 15.5224 37.7645 15.5207 37.7658 15.5189C37.7658 15.5214 37.7658 15.5242 37.7658 15.5268V19.0091C37.7658 19.3471 37.4988 19.6231 37.1646 19.639C37.1607 19.6391 37.1568 19.6387 37.1528 19.6388C37.1416 19.6392 37.1305 19.6398 37.1181 19.6407H35.4995C35.501 19.6317 35.5018 19.6226 35.5031 19.6135ZM34.3714 23.2035C34.4212 23.107 34.4695 23.0096 34.5165 22.9114C34.5403 22.8617 34.5635 22.8118 34.5866 22.7618C34.6305 22.6667 34.6733 22.5709 34.7146 22.4744C34.7358 22.4245 34.7564 22.3742 34.777 22.324C34.8128 22.2366 34.8475 22.1486 34.8812 22.0601C34.8967 22.0193 34.9127 21.9787 34.9279 21.9377C34.9692 21.825 35.008 21.7112 35.0458 21.5969C35.0598 21.5543 35.0739 21.5117 35.0875 21.4689C35.1247 21.3512 35.1601 21.2328 35.1935 21.1135C35.1979 21.098 35.203 21.0829 35.2073 21.0674H35.2884V21.6711C35.2884 22.5243 34.8239 23.2782 34.1156 23.6746C34.1337 23.6432 34.1502 23.6109 34.168 23.5795C34.2091 23.5068 34.2495 23.4337 34.2889 23.3601C34.3165 23.3079 34.3443 23.2559 34.3714 23.2035ZM11.5129 19.5846C11.5123 19.5843 11.5116 19.5842 11.511 19.5839C11.2924 19.4845 11.1399 19.2646 11.1399 19.0093V15.8644C11.1608 15.8736 11.182 15.8824 11.2029 15.8915C11.2357 15.9058 11.2687 15.9199 11.3016 15.9339C11.3725 15.9641 11.4437 15.9936 11.5152 16.0225C11.5465 16.0351 11.5776 16.0479 11.6089 16.0602C11.7051 16.0982 11.8017 16.1352 11.899 16.1709C11.903 16.1723 11.9069 16.174 11.9109 16.1754C12.3628 16.3406 12.827 16.4812 13.3008 16.5961V18.1088C13.3008 18.2255 13.3032 18.3417 13.3068 18.4576C13.3077 18.4879 13.3091 18.5181 13.3102 18.5484C13.3139 18.6425 13.3187 18.7361 13.3246 18.8296C13.3262 18.8539 13.3275 18.8781 13.3293 18.9022C13.3462 19.1415 13.3708 19.3786 13.4026 19.6136C13.4039 19.6227 13.4046 19.6318 13.406 19.6408H11.7714C11.6826 19.6407 11.5956 19.6218 11.5129 19.5846ZM14.0231 26.2405C12.7927 25.9338 11.9333 24.8338 11.9333 23.5657V21.0673H13.6987C13.7029 21.0825 13.708 21.0973 13.7122 21.1125C13.7464 21.2347 13.7827 21.3559 13.821 21.4764C13.8344 21.5187 13.8482 21.5609 13.8622 21.603C13.9008 21.7198 13.9408 21.8359 13.9832 21.9509C13.9987 21.9931 14.0152 22.035 14.0312 22.0771C14.0675 22.1721 14.1051 22.2667 14.1439 22.3605C14.1669 22.4161 14.1905 22.4715 14.2143 22.5268C14.2529 22.6158 14.2925 22.7041 14.3333 22.7918C14.3552 22.8391 14.3769 22.8865 14.3996 22.9336C14.4481 23.0342 14.4984 23.1337 14.5498 23.2325C14.5769 23.2846 14.6043 23.3367 14.6322 23.3884C14.6831 23.4828 14.7353 23.5765 14.7889 23.6692C14.8203 23.7237 14.8526 23.7777 14.8849 23.8315C14.925 23.8983 14.966 23.9646 15.0074 24.0305C15.0566 24.1089 15.1069 24.1865 15.1581 24.2635C15.1926 24.3154 15.2274 24.367 15.2628 24.4182C15.3246 24.5081 15.3879 24.5969 15.4523 24.685C15.4844 24.7288 15.5167 24.7726 15.5493 24.8159C15.6245 24.9155 15.7016 25.0136 15.78 25.1106C15.8062 25.1429 15.8319 25.1754 15.8584 25.2074C15.9114 25.2715 15.9651 25.3349 16.0195 25.3978C16.0324 25.4128 16.0457 25.4273 16.0587 25.4423C16.1593 25.5574 16.2622 25.6706 16.3676 25.7815C16.3853 25.8002 16.4031 25.8185 16.421 25.837C16.5241 25.9442 16.6293 26.0494 16.7367 26.1525C16.7537 26.1688 16.7708 26.1852 16.7879 26.2014C16.8997 26.3074 17.0139 26.4111 17.1301 26.5126C17.1438 26.5244 17.1573 26.5365 17.171 26.5483C17.3692 26.7195 17.5734 26.8842 17.7838 27.0416C17.7872 27.0442 17.7907 27.0465 17.794 27.0491C17.8843 27.1165 17.9741 27.1842 18.0665 27.2489L14.0231 26.2405ZM15.3223 21.4592C15.3197 21.4521 15.317 21.445 15.3145 21.4379C15.289 21.3683 15.2643 21.2984 15.2405 21.2282C15.2389 21.2236 15.2374 21.2191 15.2359 21.2145C15.1649 21.0044 15.1013 20.7911 15.0445 20.5749C15.0406 20.5597 15.0363 20.5446 15.0324 20.5294C15.0191 20.4775 15.0066 20.4253 14.9941 20.373C14.9853 20.3361 14.9764 20.2994 14.9681 20.2623C14.9575 20.216 14.9475 20.1696 14.9377 20.123C14.9296 20.0848 14.9217 20.0466 14.9141 20.0083C14.9061 19.9681 14.8984 19.9279 14.8909 19.8875C14.8822 19.84 14.8737 19.7924 14.8656 19.7447C14.86 19.7115 14.8544 19.6783 14.8491 19.645C14.8403 19.5896 14.8321 19.534 14.8242 19.4785C14.8203 19.4513 14.8164 19.4241 14.8127 19.3969C14.8045 19.3353 14.7972 19.2736 14.7902 19.2119C14.7876 19.1892 14.7848 19.1664 14.7824 19.1436C14.7755 19.0782 14.7695 19.0126 14.7638 18.9471C14.7621 18.9269 14.76 18.9069 14.7584 18.8867C14.753 18.8196 14.7487 18.7523 14.7448 18.685C14.7436 18.6658 14.7421 18.6467 14.7411 18.6274C14.7375 18.5589 14.735 18.4904 14.7327 18.4219C14.7321 18.4037 14.7311 18.3856 14.7306 18.3674C14.7283 18.2811 14.7271 18.1948 14.7271 18.1084V16.8598C15.7878 16.9961 16.8991 17.0116 18.0499 16.9087C18.0874 16.9054 18.1252 16.9012 18.1628 16.8977C18.2561 16.8887 18.3496 16.8792 18.4434 16.8687C18.5263 16.8596 18.6095 16.8498 18.6928 16.8394C18.7163 16.8365 18.7398 16.8332 18.7634 16.8301C20.6996 16.5816 22.7366 16.0067 24.841 15.1036C27.5956 13.9215 29.7666 12.4912 30.8417 11.7229C31.693 13.3677 32.9835 14.3575 34.1743 14.9515C34.1761 15.0267 34.1782 15.1022 34.1782 15.1751V18.1087C34.1782 18.195 34.177 18.2813 34.1747 18.3677C34.1742 18.3859 34.1732 18.404 34.1726 18.4222C34.1704 18.4907 34.1679 18.5593 34.1642 18.6277C34.1632 18.647 34.1617 18.6661 34.1605 18.6853C34.1565 18.7526 34.1523 18.8198 34.1469 18.887C34.1453 18.9072 34.1433 18.9272 34.1415 18.9474C34.1359 19.0129 34.1299 19.0785 34.1229 19.1439C34.1205 19.1667 34.1177 19.1893 34.1151 19.2121C34.1081 19.2739 34.1008 19.3356 34.0926 19.3971C34.089 19.4244 34.085 19.4516 34.0811 19.4788C34.0732 19.5343 34.0651 19.5899 34.0562 19.6453C34.0509 19.6786 34.0453 19.7118 34.0397 19.745C34.0316 19.7927 34.0232 19.8403 34.0144 19.8878C34.0069 19.9282 33.9992 19.9683 33.9912 20.0085C33.9836 20.0468 33.9757 20.0851 33.9677 20.1233C33.9578 20.1699 33.9478 20.2162 33.9373 20.2625C33.9289 20.2997 33.92 20.3366 33.9111 20.3736C33.8987 20.4255 33.8863 20.4776 33.873 20.5293C33.8689 20.5453 33.8645 20.561 33.8603 20.577C33.804 20.7918 33.7406 21.0038 33.6701 21.2125C33.6682 21.218 33.6665 21.2235 33.6646 21.2291C33.6409 21.2986 33.6164 21.3679 33.5913 21.4367C33.5885 21.4445 33.5855 21.4525 33.5827 21.4604C33.22 22.4453 32.7019 23.3555 32.0588 24.162L30.4569 24.4368C30.3073 24.1739 30.1027 23.9435 29.8484 23.7637C29.3921 23.4408 28.8373 23.3149 28.2866 23.4099L25.9615 23.8086C24.8245 24.0036 24.0581 25.0872 24.2531 26.2242C24.3748 26.9341 24.8418 27.5054 25.4638 27.7818C25.1313 27.8163 24.7939 27.8343 24.4524 27.8343C23.0395 27.8343 21.6961 27.5311 20.4836 26.9869C20.4567 26.9748 20.4299 26.9624 20.4031 26.9501C18.062 25.8734 16.2184 23.8936 15.3223 21.4592ZM29.1842 25.8561C29.0815 26.0013 28.9285 26.0977 28.7532 26.1279L26.4277 26.5266C26.3901 26.5331 26.3518 26.5364 26.3139 26.5364C25.9896 26.5364 25.7144 26.3037 25.6594 25.9831C25.5973 25.6213 25.8411 25.2766 26.2029 25.2144L28.5282 24.8157C28.5663 24.8092 28.6044 24.8059 28.6423 24.8059C28.7786 24.8059 28.9114 24.8479 29.0251 24.9282C29.1702 25.0308 29.2668 25.1839 29.2968 25.3591C29.3269 25.5344 29.2869 25.7109 29.1842 25.8561ZM20.9641 36.4202C20.4369 36.5997 19.8593 36.4451 19.4923 36.0265L16.184 32.2508L18.6377 31.4858C18.6518 31.4814 18.6672 31.485 18.678 31.4952L23.1052 35.6909L20.9641 36.4202ZM20.2755 31.0438C20.7179 30.5688 20.9782 29.9355 20.9782 29.2666V28.7084C21.0246 28.7236 21.0716 28.7367 21.1182 28.7513C21.1416 28.7587 21.1653 28.7658 21.1888 28.773C21.33 28.8163 21.4719 28.8567 21.6146 28.8942C21.6403 28.901 21.6658 28.9079 21.6916 28.9145C21.7711 28.9348 21.8507 28.9545 21.9306 28.973C21.9513 28.9778 21.9721 28.9821 21.9929 28.9868C22.1303 29.0177 22.2682 29.0462 22.4067 29.0719C22.4548 29.0808 22.503 29.0895 22.5512 29.0978C22.6183 29.1093 22.6854 29.121 22.7528 29.1313C22.8541 29.1469 22.9561 29.1608 23.0583 29.1737C23.1119 29.1803 23.1656 29.1862 23.2193 29.1921C23.3057 29.2017 23.3925 29.2101 23.4795 29.2177C23.5161 29.2209 23.5525 29.2247 23.5891 29.2275C23.7112 29.2369 23.834 29.2437 23.957 29.2491C23.9917 29.2506 24.0265 29.2519 24.0612 29.2531C24.1911 29.2576 24.3216 29.2607 24.4527 29.2607C24.5838 29.2607 24.7142 29.2576 24.8442 29.2531C24.879 29.2519 24.9137 29.2506 24.9484 29.2491C25.0715 29.2437 25.1943 29.2368 25.3163 29.2275C25.3528 29.2248 25.3893 29.2209 25.4259 29.2177C25.5129 29.2101 25.5997 29.2017 25.6861 29.1921C25.7398 29.1862 25.7935 29.1803 25.8471 29.1737C25.9493 29.1608 26.0513 29.1469 26.1527 29.1313C26.22 29.121 26.2871 29.1093 26.3542 29.0978C26.4024 29.0895 26.4506 29.0808 26.4987 29.0719C26.6372 29.0462 26.7752 29.0177 26.9125 28.9868C26.9332 28.9821 26.9541 28.9778 26.9748 28.973C27.0547 28.9545 27.1344 28.9348 27.2138 28.9145C27.2396 28.9079 27.2651 28.901 27.2908 28.8942C27.4335 28.8567 27.5754 28.8162 27.7166 28.773C27.7402 28.7658 27.7638 28.7587 27.7872 28.7513C27.8338 28.7367 27.8807 28.7237 27.9272 28.7084V29.2666C27.9272 29.9356 28.1875 30.5689 28.6299 31.0438L24.4528 35.0024L20.2755 31.0438ZM29.626 35.7839C29.1299 36.35 28.3488 36.5589 27.6365 36.3163L25.8004 35.6909L30.2277 31.4952C30.2385 31.4851 30.2538 31.4813 30.2681 31.4859L32.7217 32.2509L29.626 35.7839Z" fill="#163656"/>
<path d="M18.2162 39.908H12.8432C12.1521 39.908 11.5898 40.4702 11.5898 41.1615V43.5412C11.5898 44.2323 12.1521 44.7946 12.8432 44.7946H18.2162C18.9073 44.7946 19.4695 44.2324 19.4695 43.5412V41.1615C19.4695 40.4703 18.9072 39.908 18.2162 39.908ZM18.0429 43.3681H13.0162V41.3345H18.0429V43.3681Z" fill="#163656"/>
</g>
<defs>
<clipPath id="clip0_262_789">
<rect width="48.6459" height="48.6459" fill="white" transform="translate(0.128906 0.290649)"/>
</clipPath>
</defs>
</svg>
